<svg width="120" height="76" viewBox="0 0 120 76" fill="none" xmlns="http://www.w3.org/2000/svg">
<path opacity="0.981" fill-rule="evenodd" clip-rule="evenodd" d="M41.7871 50.8733C42.2249 50.8733 42.6625 50.8733 43.1003 50.8733C43.1037 53.5486 43.1003 56.2242 43.0902 58.8996C43.0678 59.5787 42.795 60.1118 42.272 60.4985C42.059 60.6313 41.8301 60.716 41.5851 60.7526C39.9693 60.7837 38.3531 60.7943 36.7365 60.7844C36.7365 60.2619 36.7365 59.7397 36.7365 59.2172C38.2785 59.2208 39.8208 59.2172 41.3629 59.2066C41.5691 59.1997 41.7071 59.0972 41.777 58.8996C41.7871 56.2242 41.7906 53.5486 41.7871 50.8733Z" fill="white"/>
<path opacity="0.988" fill-rule="evenodd" clip-rule="evenodd" d="M81.8288 50.8945C82.2598 50.8945 82.6909 50.8945 83.1218 50.8945C83.1184 53.5559 83.1218 56.2171 83.1319 58.8785C83.2536 59.0358 83.4119 59.1311 83.6067 59.1643C83.7204 59.1849 83.835 59.1989 83.9501 59.2067C84.476 59.226 85.0013 59.219 85.5259 59.1855C85.7688 59.1463 85.991 59.0547 86.1926 58.9102C86.2367 58.8785 86.2635 58.8361 86.2734 58.7832C86.2609 58.7095 86.2508 58.6353 86.2431 58.5608C86.233 57.7491 86.2296 56.9371 86.233 56.1254C86.6708 56.1254 87.1084 56.1254 87.5462 56.1254C87.5428 56.9231 87.5462 57.7207 87.5563 58.5184C87.607 58.8611 87.7923 59.0762 88.1119 59.1643C88.1986 59.1836 88.2862 59.1978 88.3745 59.2067C88.9739 59.2209 89.5731 59.2209 90.1726 59.2067C90.4604 59.1908 90.6085 59.032 90.617 58.7302C90.6372 56.1184 90.6439 53.5066 90.6372 50.8945C91.0681 50.8945 91.4993 50.8945 91.9302 50.8945C91.9336 53.5841 91.9302 56.2736 91.9201 58.9632C91.8864 59.6449 91.6003 60.1707 91.0615 60.5409C90.8093 60.6855 90.54 60.7702 90.2534 60.795C89.5525 60.8145 88.8523 60.8075 88.1523 60.7738C87.6462 60.701 87.2119 60.4786 86.8492 60.1067C86.4492 60.5362 85.9611 60.7656 85.3845 60.795C84.9334 60.8092 84.4821 60.8092 84.0309 60.795C83.4931 60.7535 83.0824 60.4958 82.7986 60.022C82.4539 60.4782 82.0026 60.7357 81.445 60.795C81.0141 60.8092 80.583 60.8092 80.152 60.795C79.6371 60.7601 79.2431 60.5165 78.9702 60.0644C78.631 60.4594 78.2102 60.6957 77.7075 60.7738C76.6709 60.8048 75.6339 60.8153 74.5963 60.8056C74.5963 60.2832 74.5963 59.7609 74.5963 59.2385C75.5796 59.2421 76.5626 59.2385 77.5459 59.2279C78.0285 59.1798 78.1869 58.9151 78.0207 58.4337C77.9061 57.9324 77.7918 57.4314 77.6772 56.9301C77.5859 56.5309 77.3469 56.3014 76.96 56.2419C76.4012 56.2313 75.8422 56.2277 75.2832 56.2313C75.2832 55.7088 75.2832 55.1866 75.2832 54.6641C75.9034 54.6548 76.5228 54.6654 77.1418 54.6959C77.9611 54.8556 78.5166 55.3462 78.8086 56.1677C78.9892 56.8259 79.1508 57.4896 79.2934 58.1584C79.3443 58.4382 79.3712 58.7205 79.3742 59.0055C79.5698 59.1495 79.7886 59.2236 80.0308 59.2279C80.4955 59.2421 80.9601 59.2421 81.4248 59.2279C81.6389 59.2078 81.7703 59.0913 81.8188 58.8785C81.8288 56.2171 81.8323 53.5559 81.8288 50.8945Z" fill="white"/>
<path opacity="0.991" fill-rule="evenodd" clip-rule="evenodd" d="M44.9386 50.958C45.3695 50.958 45.8006 50.958 46.2316 50.958C46.2316 54.2405 46.2316 57.523 46.2316 60.8056C45.8006 60.8056 45.3695 60.8056 44.9386 60.8056C44.9386 57.523 44.9386 54.2405 44.9386 50.958Z" fill="white"/>
<path opacity="0.99" fill-rule="evenodd" clip-rule="evenodd" d="M68.414 50.958C68.845 50.958 69.276 50.958 69.707 50.958C69.7035 53.5417 69.707 56.1253 69.7171 58.709C69.7163 58.8363 69.7433 58.9563 69.7979 59.069C69.8694 59.1552 69.9603 59.2011 70.0706 59.2066C70.7913 59.2208 71.5117 59.2208 72.2323 59.2066C72.362 59.2113 72.4463 59.1514 72.4848 59.0266C72.4949 57.6571 72.4984 56.2878 72.4949 54.9182C72.9259 54.9182 73.357 54.9182 73.7879 54.9182C73.7914 56.3371 73.7879 57.756 73.7778 59.1749C73.7336 59.8155 73.4473 60.292 72.9192 60.6044C72.6945 60.7109 72.4588 60.7674 72.2121 60.7738C71.4371 60.7937 70.6628 60.7865 69.8888 60.7526C69.1209 60.59 68.6528 60.1065 68.4847 59.3019C68.4536 59.1554 68.4334 59.0072 68.4241 58.8572C68.414 56.2242 68.4106 53.591 68.414 50.958Z" fill="white"/>
<path opacity="0.991" fill-rule="evenodd" clip-rule="evenodd" d="M93.6876 50.958C94.1185 50.958 94.5497 50.958 94.9806 50.958C94.9806 54.2405 94.9806 57.523 94.9806 60.8056C94.5497 60.8056 94.1185 60.8056 93.6876 60.8056C93.6876 57.523 93.6876 54.2405 93.6876 50.958Z" fill="white"/>
<path opacity="0.991" fill-rule="evenodd" clip-rule="evenodd" d="M109.123 50.958C109.554 50.958 109.985 50.958 110.416 50.958C110.416 54.2405 110.416 57.523 110.416 60.8056C109.985 60.8056 109.554 60.8056 109.123 60.8056C109.123 57.523 109.123 54.2405 109.123 50.958Z" fill="white"/>
<path opacity="0.987" fill-rule="evenodd" clip-rule="evenodd" d="M8.06872 50.9792C8.4997 50.9792 8.9307 50.9792 9.36168 50.9792C9.35831 53.6195 9.36168 56.2594 9.37179 58.8996C9.38094 59.0496 9.45165 59.1521 9.58392 59.2067C14.0951 59.2419 18.6071 59.2489 23.1197 59.2279C23.229 59.229 23.2997 59.176 23.3318 59.0691C23.3454 58.7796 23.3454 58.4903 23.3318 58.2008C23.2451 57.2277 22.7369 56.7016 21.8065 56.6231C19.1532 56.6125 16.5 56.6089 13.8467 56.6125C13.8433 55.9841 13.8467 55.3558 13.8568 54.7277C13.9026 53.9291 14.2225 53.2831 14.8164 52.7899C15.56 52.2539 16.3007 51.7139 17.0387 51.1698C17.2567 51.5527 17.4722 51.9375 17.6852 52.324C16.9816 52.8516 16.2745 53.374 15.5639 53.8912C15.1268 54.2114 14.9383 54.6525 14.9982 55.2148C17.234 55.2112 19.4698 55.2148 21.7055 55.2253C22.4257 55.244 23.0722 55.4769 23.645 55.9242C24.2419 56.5013 24.5684 57.2177 24.6248 58.0737C24.6434 58.4054 24.6569 58.737 24.6652 59.0691C24.8101 59.1603 24.9682 59.2061 25.14 59.2067C25.6994 59.226 26.2584 59.219 26.8168 59.1855C27.0875 59.1569 27.3334 59.0616 27.5542 58.8996C27.5251 57.9767 27.515 57.0519 27.5239 56.1254C27.9548 56.1254 28.3859 56.1254 28.8168 56.1254C28.8134 56.902 28.8168 57.6783 28.8269 58.4549C28.8655 58.8766 29.0843 59.1201 29.4835 59.1855C29.8062 59.2175 30.1294 59.2247 30.4533 59.2067C30.5923 59.2001 30.7268 59.172 30.8573 59.122C30.9214 59.0832 30.9719 59.0303 31.0088 58.9632C31.0189 57.9325 31.0224 56.902 31.0189 55.8713C31.4499 55.8713 31.881 55.8713 32.3119 55.8713C32.3085 56.8666 32.3119 57.8619 32.322 58.8573C32.3386 58.9803 32.3959 59.0756 32.4937 59.1432C32.5782 59.1868 32.6657 59.2222 32.7564 59.2491C33.1744 59.3537 33.5954 59.442 34.019 59.5138C34.3491 59.504 34.5142 59.324 34.514 58.9738C34.494 57.7211 34.4873 56.468 34.4938 55.2148C34.9247 55.2148 35.3558 55.2148 35.7868 55.2148C35.7902 56.5347 35.7868 57.8549 35.7767 59.1749C35.7457 59.9003 35.4461 60.4615 34.8776 60.8586C34.5279 61.0447 34.1576 61.1152 33.7665 61.0703C33.2841 60.986 32.8061 60.8802 32.3321 60.7527C32.0127 60.6578 31.74 60.4848 31.5139 60.2338C31.2284 60.5758 30.868 60.7628 30.4331 60.795C30.0959 60.8126 29.7591 60.8056 29.4229 60.7738C28.8981 60.7052 28.4504 60.4759 28.0794 60.0856C27.6903 60.5242 27.2089 60.7607 26.635 60.795C26.1501 60.8092 25.6652 60.8092 25.1804 60.795C24.7955 60.7548 24.4858 60.5748 24.251 60.255C23.948 60.5833 23.5777 60.7633 23.1399 60.795C18.5939 60.816 14.0483 60.809 9.5031 60.7738C8.93844 60.6686 8.53101 60.3475 8.28084 59.8103C8.19587 59.6135 8.13526 59.409 8.09902 59.1961C8.06896 56.4577 8.05886 53.7188 8.06872 50.9792Z" fill="white"/>
<path opacity="0.981" fill-rule="evenodd" clip-rule="evenodd" d="M100.415 52.0168C100.86 52.0168 101.304 52.0168 101.749 52.0168C101.749 52.5321 101.749 53.0476 101.749 53.5628C101.304 53.5628 100.86 53.5628 100.415 53.5628C100.415 53.0476 100.415 52.5321 100.415 52.0168Z" fill="white"/>
<path opacity="0.981" fill-rule="evenodd" clip-rule="evenodd" d="M102.152 52.0168C102.597 52.0168 103.041 52.0168 103.486 52.0168C103.486 52.5321 103.486 53.0476 103.486 53.5628C103.041 53.5628 102.597 53.5628 102.152 53.5628C102.152 53.0476 102.152 52.5321 102.152 52.0168Z" fill="white"/>
<path opacity="0.979" fill-rule="evenodd" clip-rule="evenodd" d="M112.476 52.3135C112.941 52.3135 113.406 52.3135 113.87 52.3135C113.87 52.8359 113.87 53.3582 113.87 53.8806C113.406 53.8806 112.941 53.8806 112.476 53.8806C112.476 53.3582 112.476 52.8359 112.476 52.3135Z" fill="white"/>
<path opacity="0.984" fill-rule="evenodd" clip-rule="evenodd" d="M38.8378 52.4617C38.858 52.4617 38.8782 52.4617 38.8984 52.4617C39.3117 54.5153 39.7224 56.5695 40.1307 58.6243C39.6796 58.6243 39.2283 58.6243 38.7772 58.6243C38.3881 56.6771 38.0042 54.7287 37.6256 52.7793C38.0349 52.6861 38.439 52.5803 38.8378 52.4617Z" fill="white"/>
<path opacity="0.983" fill-rule="evenodd" clip-rule="evenodd" d="M60.5148 54.0076C60.9526 54.0076 61.3902 54.0076 61.8279 54.0076C61.8279 54.53 61.8279 55.0522 61.8279 55.5747C61.3902 55.5747 60.9526 55.5747 60.5148 55.5747C60.5148 55.0522 60.5148 54.53 60.5148 54.0076Z" fill="white"/>
<path opacity="0.968" fill-rule="evenodd" clip-rule="evenodd" d="M62.212 54.0076C62.6565 54.0076 63.1009 54.0076 63.5454 54.0076C63.5454 54.53 63.5454 55.0522 63.5454 55.5747C63.1009 55.5747 62.6565 55.5747 62.212 55.5747C62.212 55.0522 62.212 54.53 62.212 54.0076Z" fill="white"/>
<path opacity="0.987" fill-rule="evenodd" clip-rule="evenodd" d="M65.6264 54.9182C66.0573 54.9182 66.4884 54.9182 66.9193 54.9182C66.9193 56.8735 66.9193 58.8291 66.9193 60.7844C64.4075 60.788 61.8955 60.7844 59.3837 60.7738C57.7526 60.6734 56.84 59.7734 56.6463 58.0737C56.6362 57.2901 56.6328 56.5065 56.6362 55.723C57.0671 55.723 57.4982 55.723 57.9292 55.723C57.9257 56.45 57.9292 57.1772 57.9393 57.9043C57.9887 58.5629 58.3154 58.9758 58.9191 59.1431C59.0589 59.1757 59.2003 59.1969 59.3433 59.2067C61.4377 59.2173 63.532 59.2209 65.6264 59.2173C65.6264 57.7842 65.6264 56.3513 65.6264 54.9182Z" fill="white"/>
<path opacity="0.976" fill-rule="evenodd" clip-rule="evenodd" d="M2.67493 54.9395C3.13959 54.9395 3.60425 54.9395 4.06891 54.9395C4.06891 55.4619 4.06891 55.9841 4.06891 56.5066C3.60425 56.5066 3.13959 56.5066 2.67493 56.5066C2.67493 55.9841 2.67493 55.4619 2.67493 54.9395Z" fill="white"/>
<path opacity="0.986" fill-rule="evenodd" clip-rule="evenodd" d="M100.132 54.9393C100.914 54.9357 101.695 54.9393 102.476 54.9499C103.336 54.998 103.952 55.4249 104.325 56.2312C104.393 56.4044 104.454 56.5808 104.506 56.7606C104.576 57.1162 104.65 57.469 104.729 57.8195C104.864 58.5939 104.716 59.2998 104.284 59.9372C103.888 60.4008 103.393 60.6655 102.799 60.7314C102.308 60.7456 101.816 60.7456 101.324 60.7314C100.155 60.563 99.5419 59.8606 99.486 58.6242C99.4983 58.4544 99.5153 58.285 99.5365 58.116C99.733 57.0562 99.9316 55.9974 100.132 54.9393ZM101.163 56.3371C101.607 56.3335 102.052 56.3371 102.496 56.3477C102.785 56.3908 102.99 56.5497 103.112 56.8241C103.257 57.326 103.354 57.8377 103.405 58.3595C103.418 58.9463 103.148 59.2782 102.597 59.3549C102.207 59.369 101.816 59.369 101.425 59.3549C100.923 59.322 100.697 59.0431 100.749 58.5183C100.883 57.7901 101.021 57.063 101.163 56.3371Z" fill="white"/>
<path opacity="0.986" fill-rule="evenodd" clip-rule="evenodd" d="M49.8074 54.9606C50.5319 54.8996 51.1784 55.1008 51.7469 55.5641C52.2608 56.0781 52.5336 56.7099 52.5651 57.4595C52.5786 58.6809 52.5786 59.9019 52.5651 61.1233C52.512 61.9163 52.1382 62.4703 51.4438 62.7857C51.2418 62.8774 51.0329 62.9481 50.8176 62.9975C49.9234 63.208 49.0313 63.4233 48.1407 63.6434C48.0397 63.1849 47.9421 62.7262 47.8478 62.2668C48.8753 62.0339 49.8988 61.7831 50.9186 61.515C51.0806 61.4441 51.185 61.3206 51.2317 61.1444C51.2418 61.0246 51.2453 60.9047 51.2418 60.7844C50.7162 60.7925 50.1909 60.7819 49.666 60.7526C48.6046 60.6 47.9144 59.9894 47.5952 58.9208C47.5409 58.7126 47.5072 58.5008 47.4942 58.2855C47.4571 57.7785 47.4908 57.2772 47.5952 56.7819C47.9447 55.6567 48.6821 55.0495 49.8074 54.9606ZM49.8882 56.4218C50.2559 56.388 50.5927 56.4763 50.8984 56.6866C51.0986 56.8767 51.2164 57.1133 51.2519 57.396C51.2802 58.0379 51.2903 58.6802 51.2822 59.3232C50.8511 59.3268 50.4202 59.3232 49.9893 59.3126C49.3482 59.2933 48.9612 58.9578 48.8276 58.3066C48.8141 58.0102 48.8141 57.7137 48.8276 57.4172C48.942 56.8049 49.2955 56.4731 49.8882 56.4218Z" fill="white"/>
<path opacity="0.986" fill-rule="evenodd" clip-rule="evenodd" d="M117.184 54.9606C117.897 54.902 118.536 55.0962 119.103 55.543C119.631 56.0591 119.91 56.6981 119.941 57.4596C119.955 58.6809 119.955 59.902 119.941 61.1233C119.888 61.9164 119.514 62.4704 118.82 62.7857C118.618 62.8774 118.409 62.9482 118.194 62.9975C117.3 63.208 116.407 63.4234 115.517 63.6434C115.416 63.1849 115.318 62.7262 115.224 62.2669C116.251 62.0339 117.275 61.7832 118.295 61.5151C118.457 61.4441 118.561 61.3207 118.608 61.1445C118.618 61.0246 118.621 60.9048 118.618 60.7845C118.092 60.7925 117.567 60.7819 117.042 60.7527C115.981 60.6 115.291 59.9895 114.971 58.9208C114.917 58.7127 114.883 58.5009 114.87 58.2855C114.834 57.7785 114.867 57.2775 114.971 56.7819C115.321 55.6568 116.058 55.0496 117.184 54.9606ZM117.244 56.4219C117.612 56.388 117.949 56.4763 118.254 56.6866C118.46 56.8819 118.578 57.1254 118.608 57.4172C118.618 58.0526 118.621 58.6879 118.618 59.3232C118.194 59.3268 117.769 59.3232 117.345 59.3126C116.709 59.3018 116.322 58.9736 116.184 58.3279C116.144 58.0172 116.144 57.7065 116.184 57.3961C116.301 56.7891 116.655 56.4645 117.244 56.4219Z" fill="white"/>
<path opacity="0.987" fill-rule="evenodd" clip-rule="evenodd" d="M106.395 55.3206C106.826 55.3206 107.257 55.3206 107.688 55.3206C107.692 57.2759 107.688 59.2314 107.678 61.1867C107.585 62.091 107.144 62.7299 106.355 63.1033C105.92 63.2833 105.486 63.4633 105.052 63.6433C104.895 63.2054 104.73 62.7712 104.557 62.3409C105.022 62.1476 105.487 61.95 105.951 61.7479C106.17 61.6092 106.308 61.408 106.365 61.1444C106.395 59.2037 106.405 57.2625 106.395 55.3206Z" fill="white"/>
<path opacity="0.987" fill-rule="evenodd" clip-rule="evenodd" d="M112.618 55.3206C113.049 55.3206 113.48 55.3206 113.911 55.3206C113.914 57.2759 113.911 59.2314 113.901 61.1867C113.798 62.0847 113.357 62.7234 112.577 63.1033C112.143 63.2833 111.708 63.4633 111.274 63.6433C111.117 63.2054 110.952 62.7712 110.779 62.3409C111.245 62.1476 111.71 61.95 112.173 61.7479C112.393 61.6092 112.531 61.408 112.588 61.1444C112.618 59.2037 112.628 57.2625 112.618 55.3206Z" fill="white"/>
<path opacity="0.987" fill-rule="evenodd" clip-rule="evenodd" d="M5.26071 55.5747C5.69169 55.5747 6.1227 55.5747 6.55368 55.5747C6.55705 57.396 6.55368 59.2172 6.54358 61.0385C6.4046 62.3136 5.72782 63.0231 4.51321 63.1668C3.94081 63.181 3.36839 63.181 2.79599 63.1668C2.07574 63.1279 1.44272 62.8665 0.896936 62.3833C0.39128 61.8488 0.111808 61.2028 0.0585259 60.4455C0.042301 60.1344 0.0490366 59.8238 0.0787284 59.5137C0.182204 58.7791 0.286583 58.0451 0.391869 57.3113C0.809392 57.3113 1.22691 57.3113 1.64443 57.3113C1.53914 58.0592 1.43476 58.8074 1.33129 59.5561C1.28507 59.9036 1.29181 60.2494 1.3515 60.5938C1.47042 61.008 1.72296 61.2939 2.10909 61.4515C2.27361 61.5106 2.44195 61.5529 2.61416 61.5785C3.24667 61.6124 3.8797 61.6194 4.51321 61.5997C4.95593 61.5732 5.20174 61.3297 5.25061 60.8691C5.26071 59.1044 5.26408 57.3394 5.26071 55.5747Z" fill="white"/>
<path opacity="0.977" fill-rule="evenodd" clip-rule="evenodd" d="M38.9994 61.3774C39.2687 61.3774 39.5382 61.3774 39.8075 61.3774C39.8075 61.6458 39.8075 61.9139 39.8075 62.1822C39.4903 62.175 39.1737 62.1856 38.858 62.214C38.7174 62.2506 38.6198 62.3387 38.565 62.4787C38.525 62.6028 38.5117 62.7298 38.5246 62.8599C39.0014 62.9018 39.483 62.916 39.9691 62.9022C39.9691 63.1705 39.9691 63.4386 39.9691 63.707C39.1341 63.707 38.299 63.707 37.464 63.707C37.464 63.4386 37.464 63.1705 37.464 62.9022C37.5785 62.9022 37.6929 62.9022 37.8074 62.9022C37.7993 62.4977 37.9038 62.1307 38.1206 61.801C38.3588 61.531 38.6517 61.3897 38.9994 61.3774Z" fill="white"/>
<path opacity="0.981" fill-rule="evenodd" clip-rule="evenodd" d="M71.4244 61.928C71.8689 61.928 72.3134 61.928 72.7578 61.928C72.7578 62.4432 72.7578 62.9587 72.7578 63.4739C72.3134 63.4739 71.8689 63.4739 71.4244 63.4739C71.4244 62.9587 71.4244 62.4432 71.4244 61.928Z" fill="white"/>
<path opacity="0.981" fill-rule="evenodd" clip-rule="evenodd" d="M73.1417 61.928C73.5862 61.928 74.0306 61.928 74.4751 61.928C74.4751 62.4432 74.4751 62.9587 74.4751 63.4739C74.0306 63.4739 73.5862 63.4739 73.1417 63.4739C73.1417 62.9587 73.1417 62.4432 73.1417 61.928Z" fill="white"/>
<path opacity="0.976" fill-rule="evenodd" clip-rule="evenodd" d="M86.152 61.9702C86.6166 61.9702 87.0813 61.9702 87.546 61.9702C87.546 62.4927 87.546 63.0149 87.546 63.5373C87.0813 63.5373 86.6166 63.5373 86.152 63.5373C86.152 63.0149 86.152 62.4927 86.152 61.9702Z" fill="white"/>
<path opacity="0.963" fill-rule="evenodd" clip-rule="evenodd" d="M6.49294 68.8954C6.68505 68.8662 6.86014 68.9086 7.01821 69.0225C7.17781 69.2237 7.20137 69.4424 7.08892 69.679C6.98108 69.8236 6.83966 69.8872 6.66466 69.8696C6.2711 69.8704 6.09602 69.6659 6.13939 69.2554C6.20182 69.0735 6.31966 68.9535 6.49294 68.8954Z" fill="white"/>
<path opacity="0.964" fill-rule="evenodd" clip-rule="evenodd" d="M12.2305 68.8953C12.5027 68.8459 12.7149 68.9376 12.8669 69.1706C12.9676 69.4969 12.87 69.7265 12.5739 69.8588C12.3195 69.9228 12.1074 69.8557 11.9376 69.6577C11.785 69.2932 11.8827 69.0391 12.2305 68.8953Z" fill="white"/>
<path opacity="0.963" fill-rule="evenodd" clip-rule="evenodd" d="M50.0703 68.8954C50.242 68.8744 50.4037 68.9062 50.5552 68.9907C50.7532 69.1894 50.7903 69.4189 50.6663 69.679C50.5584 69.8236 50.417 69.8871 50.242 69.8696C49.9121 69.8861 49.7337 69.7237 49.7067 69.3825C49.7085 69.1197 49.8297 68.9572 50.0703 68.8954Z" fill="white"/>
<path opacity="0.964" fill-rule="evenodd" clip-rule="evenodd" d="M55.5046 68.8953C55.7276 68.8626 55.9195 68.9262 56.0804 69.0859C56.203 69.3025 56.1963 69.5143 56.0601 69.7212C55.947 69.8336 55.8125 69.883 55.6561 69.8694C55.2159 69.8362 55.0543 69.596 55.1712 69.1494C55.2506 69.0147 55.3617 68.93 55.5046 68.8953Z" fill="white"/>
<path opacity="0.963" fill-rule="evenodd" clip-rule="evenodd" d="M67.0405 68.8954C67.5898 68.8531 67.7953 69.1072 67.6567 69.6578C67.4939 69.8598 67.2884 69.9267 67.0405 69.859C66.73 69.748 66.6189 69.5257 66.7072 69.1919C66.7797 69.0413 66.8908 68.9426 67.0405 68.8954Z" fill="white"/>
<path opacity="0.963" fill-rule="evenodd" clip-rule="evenodd" d="M71.4444 68.8953C71.6674 68.8626 71.8594 68.9262 72.0202 69.0859C72.1428 69.3025 72.1362 69.5143 72 69.7212C71.8869 69.8336 71.7523 69.883 71.5959 69.8694C71.1559 69.8366 70.9943 69.5967 71.1111 69.1494C71.1905 69.0147 71.3016 68.93 71.4444 68.8953Z" fill="white"/>
<path opacity="0.965" fill-rule="evenodd" clip-rule="evenodd" d="M111.203 68.8954C111.379 68.8744 111.541 68.9132 111.688 69.0119C111.873 69.2207 111.897 69.4501 111.759 69.7002C111.567 69.8713 111.348 69.9172 111.102 69.8378C110.857 69.716 110.767 69.5149 110.83 69.2342C110.85 69.1449 110.894 69.0708 110.961 69.0119C111.041 68.9662 111.122 68.9272 111.203 68.8954Z" fill="white"/>
<path opacity="0.99" fill-rule="evenodd" clip-rule="evenodd" d="M64.8788 68.98C65.1886 68.98 65.4985 68.98 65.8082 68.98C65.8048 70.3707 65.8082 71.7612 65.8183 73.1519C65.8284 73.1625 65.8385 73.1731 65.8486 73.1837C65.9494 73.1943 66.0504 73.1979 66.1516 73.1943C66.1516 73.4766 66.1516 73.7591 66.1516 74.0414C65.8298 74.0649 65.5268 73.998 65.2425 73.8402C65.0427 73.6511 64.9249 73.4146 64.8889 73.1308C64.8788 71.7472 64.8754 70.3635 64.8788 68.98Z" fill="white"/>
<path opacity="0.984" fill-rule="evenodd" clip-rule="evenodd" d="M91.6472 68.98C91.957 68.98 92.2669 68.98 92.5766 68.98C92.5766 70.6742 92.5766 72.3684 92.5766 74.0626C92.2669 74.0626 91.957 74.0626 91.6472 74.0626C91.6507 73.9283 91.6472 73.7941 91.6371 73.6602C91.4208 73.9607 91.1313 74.116 90.7684 74.1261C89.9785 74.0465 89.4868 73.6018 89.2936 72.7919C89.2062 72.2674 89.2601 71.7591 89.4553 71.2672C89.8235 70.5255 90.3927 70.275 91.1624 70.5154C91.3646 70.6073 91.5228 70.7519 91.6371 70.9495C91.6472 70.293 91.6507 69.6365 91.6472 68.98ZM90.7583 71.2036C90.8852 71.2314 91.0266 71.2631 91.1826 71.2989C91.3889 71.4165 91.5202 71.5965 91.5765 71.839C91.6321 72.1329 91.6523 72.4294 91.6371 72.7284C91.5315 73.1206 91.2858 73.3146 90.8998 73.3108C90.909 73.3021 90.9157 73.2915 90.92 73.279C90.6133 73.2576 90.408 73.0954 90.3038 72.7919C90.1523 72.3201 90.1927 71.8682 90.425 71.4366C90.5187 71.3271 90.6298 71.2494 90.7583 71.2036Z" fill="white"/>
<path opacity="0.97" fill-rule="evenodd" clip-rule="evenodd" d="M33.383 69.1072C33.5177 69.0975 33.6491 69.1117 33.7769 69.1496C33.787 69.4107 33.7905 69.6718 33.787 69.9331C33.664 69.923 33.5428 69.9018 33.4234 69.8696C33.3291 69.8993 33.2349 69.931 33.1406 69.9649C33.0796 70.0255 33.0426 70.0996 33.0294 70.1873C33.0193 70.293 33.0159 70.3988 33.0193 70.5049C33.282 70.5049 33.5446 70.5049 33.8073 70.5049C33.8073 70.7521 33.8073 70.999 33.8073 71.2462C33.5446 71.2462 33.282 71.2462 33.0193 71.2462C33.0193 72.1849 33.0193 73.124 33.0193 74.0628C32.7028 74.0628 32.3864 74.0628 32.0698 74.0628C32.0698 73.124 32.0698 72.1849 32.0698 71.2462C31.8947 71.2462 31.7197 71.2462 31.5446 71.2462C31.5446 70.999 31.5446 70.7521 31.5446 70.5049C31.7197 70.5049 31.8947 70.5049 32.0698 70.5049C32.0868 69.6047 32.5246 69.1388 33.383 69.1072Z" fill="white"/>
<path opacity="0.979" fill-rule="evenodd" clip-rule="evenodd" d="M0.290894 69.1919C0.735451 69.1934 1.17991 69.2006 1.62427 69.2131C1.96159 70.4367 2.30841 71.658 2.66471 72.8768C3.0211 71.6648 3.37129 70.4507 3.71524 69.2342C4.18176 69.2133 4.64978 69.2061 5.11933 69.2131C5.19238 70.8232 5.27319 72.4327 5.36176 74.0415C5.04537 74.0634 4.72885 74.0845 4.41224 74.1051C4.35274 72.8554 4.28876 71.6059 4.22031 70.3567C3.86604 71.5767 3.51586 72.7978 3.16977 74.0204C2.85146 74.0413 2.53159 74.0483 2.21015 74.0415C1.86965 72.812 1.52284 71.5837 1.16971 70.3567C1.10507 71.5917 1.04783 72.827 0.997987 74.0627C0.681062 74.0574 0.364553 74.0435 0.0484619 74.0204C0.134216 72.4113 0.215027 70.8018 0.290894 69.1919Z" fill="white"/>
<path opacity="0.979" fill-rule="evenodd" clip-rule="evenodd" d="M35.9286 69.1919C36.3664 69.1932 36.8042 69.2001 37.2418 69.2131C37.5791 70.4367 37.9258 71.658 38.2822 72.8768C38.6386 71.6648 38.9887 70.4507 39.3327 69.2342C39.7992 69.2133 40.2673 69.2061 40.7368 69.2131C40.8085 70.8234 40.8894 72.4329 40.9793 74.0415C40.6629 74.0634 40.3463 74.0845 40.0297 74.1051C39.9703 72.8554 39.9063 71.6059 39.8378 70.3567C39.4834 71.5767 39.1333 72.7978 38.7873 74.0204C38.4689 74.0413 38.1491 74.0483 37.8276 74.0415C37.4979 72.8389 37.1579 71.6387 36.8074 70.4414C36.7454 71.6483 36.6882 72.8554 36.6357 74.0627C36.3175 74.0644 36.0009 74.0432 35.6862 73.9992C35.7783 72.3979 35.8591 70.7955 35.9286 69.1919Z" fill="white"/>
<path opacity="0.981" fill-rule="evenodd" clip-rule="evenodd" d="M17.342 69.2554C17.6517 69.2554 17.9615 69.2554 18.2713 69.2554C18.2713 69.6719 18.2713 70.0883 18.2713 70.5049C18.5339 70.5049 18.7966 70.5049 19.0592 70.5049C19.0592 70.752 19.0592 70.9989 19.0592 71.2461C18.7966 71.2461 18.5339 71.2461 18.2713 71.2461C18.2679 71.8814 18.2713 72.5167 18.2814 73.152C18.2982 73.1696 18.3151 73.1874 18.3319 73.205C18.5742 73.2156 18.8167 73.2192 19.0592 73.2156C19.0592 73.4979 19.0592 73.7804 19.0592 74.0627C18.783 74.0663 18.5069 74.0627 18.2309 74.0521C17.911 74.0053 17.6584 73.8465 17.4733 73.5756C17.4046 73.4358 17.3642 73.2876 17.3521 73.1309C17.342 72.5027 17.3386 71.8744 17.342 71.2461C17.1602 71.2461 16.9783 71.2461 16.7965 71.2461C16.7965 70.9989 16.7965 70.752 16.7965 70.5049C16.9783 70.5049 17.1602 70.5049 17.342 70.5049C17.342 70.0883 17.342 69.6719 17.342 69.2554Z" fill="white"/>
<path opacity="0.981" fill-rule="evenodd" clip-rule="evenodd" d="M68.778 69.2554C69.0877 69.2554 69.3976 69.2554 69.7073 69.2554C69.7073 69.6719 69.7073 70.0883 69.7073 70.5049C69.97 70.5049 70.2326 70.5049 70.4952 70.5049C70.4952 70.752 70.4952 70.9989 70.4952 71.2461C70.2326 71.2461 69.97 71.2461 69.7073 71.2461C69.7039 71.8814 69.7073 72.5167 69.7174 73.152C69.7342 73.1696 69.7512 73.1874 69.7679 73.205C70.0104 73.2156 70.2528 73.2192 70.4952 73.2156C70.4952 73.4979 70.4952 73.7804 70.4952 74.0627C70.2191 74.0663 69.9429 74.0627 69.6669 74.0521C69.3469 74.0053 69.0944 73.8465 68.9093 73.5756C68.8406 73.4358 68.8002 73.2876 68.7881 73.1309C68.778 72.5027 68.7746 71.8744 68.778 71.2461C68.5962 71.2461 68.4144 71.2461 68.2325 71.2461C68.2325 70.9989 68.2325 70.752 68.2325 70.5049C68.4144 70.5049 68.5962 70.5049 68.778 70.5049C68.778 70.0883 68.778 69.6719 68.778 69.2554Z" fill="white"/>
<path opacity="0.978" fill-rule="evenodd" clip-rule="evenodd" d="M94.819 69.2554C95.1356 69.2554 95.4519 69.2554 95.7685 69.2554C95.7685 69.8695 95.7685 70.4837 95.7685 71.0978C96.415 71.0978 97.0615 71.0978 97.708 71.0978C97.708 70.4837 97.708 69.8695 97.708 69.2554C98.0245 69.2554 98.3409 69.2554 98.6575 69.2554C98.6575 70.8579 98.6575 72.4602 98.6575 74.0627C98.3409 74.0627 98.0245 74.0627 97.708 74.0627C97.708 73.3568 97.708 72.6508 97.708 71.9449C97.0615 71.9449 96.415 71.9449 95.7685 71.9449C95.7685 72.6508 95.7685 73.3568 95.7685 74.0627C95.4519 74.0627 95.1356 74.0627 94.819 74.0627C94.819 72.4602 94.819 70.8579 94.819 69.2554Z" fill="white"/>
<path opacity="0.976" fill-rule="evenodd" clip-rule="evenodd" d="M9.94781 70.3777C10.1827 70.4139 10.4049 70.495 10.6145 70.6212C10.9447 70.9177 11.1164 71.2953 11.1297 71.7542C11.1398 72.5096 11.1431 73.2648 11.1398 74.0202C10.83 74.0202 10.5202 74.0202 10.2105 74.0202C10.2196 73.2642 10.2095 72.509 10.1801 71.7542C10.1166 71.3025 9.87755 71.1509 9.46295 71.2989C9.09712 71.4332 8.89847 71.7049 8.86697 72.1142C8.85687 72.7635 8.8535 73.4131 8.85687 74.0626C8.54036 74.0626 8.22386 74.0626 7.90735 74.0626C7.90735 72.8624 7.90735 71.6625 7.90735 70.4624C8.22386 70.4624 8.54036 70.4624 8.85687 70.4624C8.85352 70.6744 8.85687 70.8862 8.86697 71.0977C9.02601 70.7826 9.26507 70.5672 9.58417 70.4518C9.69765 70.4296 9.81214 70.4154 9.92761 70.4094C9.93884 70.4014 9.94557 70.3908 9.94781 70.3777Z" fill="white"/>
<path opacity="0.989" fill-rule="evenodd" clip-rule="evenodd" d="M21.7662 70.3777C21.8 70.3777 21.8335 70.3777 21.8673 70.3777C21.8673 70.6884 21.8673 70.9988 21.8673 71.3095C21.604 71.312 21.3483 71.3578 21.0995 71.4471C20.8474 71.5702 20.6826 71.7714 20.6046 72.0507C20.5945 72.7212 20.591 73.3919 20.5945 74.0626C20.2848 74.0626 19.9749 74.0626 19.6652 74.0626C19.6652 72.8624 19.6652 71.6625 19.6652 70.4624C19.9749 70.4624 20.2848 70.4624 20.5945 70.4624C20.591 70.6814 20.5945 70.9001 20.6046 71.1189C20.8698 70.6638 21.2571 70.4169 21.7662 70.3777Z" fill="white"/>
<path opacity="0.978" fill-rule="evenodd" clip-rule="evenodd" d="M29.423 70.3777C30.2014 70.3883 30.7772 70.7483 31.1504 71.4577C31.4534 72.2714 31.3152 72.9878 30.7362 73.6073C30.0964 74.1456 29.4028 74.2373 28.6553 73.8826C27.7991 73.3222 27.5264 72.535 27.8371 71.5213C28.1593 70.8281 28.6878 70.4469 29.423 70.3777ZM29.3826 71.2671C29.7792 71.2419 30.0721 71.4114 30.2614 71.7754C30.4558 72.2697 30.3649 72.6968 29.9887 73.0566C29.5287 73.3235 29.1347 73.2422 28.8068 72.8131C28.547 72.2928 28.6177 71.8302 29.019 71.426C29.1368 71.358 29.258 71.305 29.3826 71.2671Z" fill="white"/>
<path opacity="0.977" fill-rule="evenodd" clip-rule="evenodd" d="M47.767 70.3777C48.4044 70.4493 48.7916 70.8163 48.9286 71.4789C48.9466 71.5842 48.9599 71.69 48.969 71.7966C48.9791 72.5378 48.9826 73.279 48.9791 74.0202C48.6694 74.0202 48.3595 74.0202 48.0498 74.0202C48.0587 73.2714 48.0486 72.5232 48.0195 71.7754C47.9557 71.2953 47.7031 71.1365 47.2619 71.2989C46.9704 71.4139 46.7853 71.6291 46.7063 71.9448C46.6962 72.6507 46.6928 73.3567 46.6962 74.0626C46.3797 74.0626 46.0633 74.0626 45.7467 74.0626C45.7467 72.8624 45.7467 71.6625 45.7467 70.4624C46.0633 70.4624 46.3797 70.4624 46.6962 70.4624C46.6928 70.6532 46.6962 70.8438 46.7063 71.0342C46.9477 70.6096 47.3013 70.3908 47.767 70.3777Z" fill="white"/>
<path opacity="0.98" fill-rule="evenodd" clip-rule="evenodd" d="M58.7371 70.3777C59.5329 70.4529 60.0279 70.8976 60.222 71.7119C60.3362 72.3639 60.2283 72.9709 59.8988 73.5331C59.4986 74.0448 58.9969 74.2036 58.3937 74.0096C58.172 73.9184 58.0003 73.7665 57.8785 73.5543C57.8684 74.2178 57.865 74.8813 57.8684 75.545C57.5587 75.545 57.2488 75.545 56.9391 75.545C56.9391 73.8438 56.9391 72.1424 56.9391 70.4412C57.2488 70.4412 57.5587 70.4412 57.8684 70.4412C57.865 70.5825 57.8684 70.7237 57.8785 70.8648C58.0927 70.5602 58.3789 70.3978 58.7371 70.3777ZM58.5755 71.1824C58.6189 71.1801 58.6256 71.1943 58.5957 71.2248C58.9507 71.2684 59.1694 71.4732 59.2523 71.8389C59.3525 72.261 59.3054 72.6634 59.1109 73.0461C58.8902 73.3171 58.6444 73.377 58.3735 73.2261C58.1331 73.1221 57.9882 72.9351 57.9391 72.6649C57.8844 72.3779 57.8642 72.0886 57.8785 71.7966C57.9724 71.4145 58.2048 71.2097 58.5755 71.1824Z" fill="white"/>
<path opacity="0.971" fill-rule="evenodd" clip-rule="evenodd" d="M74.3336 70.3777C75.337 70.3815 75.8995 70.9039 76.0205 71.9448C76.0306 72.1282 76.034 72.3118 76.0306 72.4954C75.2093 72.5293 74.3879 72.5435 73.5659 72.5378C73.639 73.0486 73.9218 73.3203 74.4144 73.3531C74.7475 73.3779 75.0336 73.2686 75.273 73.0249C75.4461 73.1598 75.6178 73.2974 75.7882 73.4378C75.8088 73.4601 75.812 73.4848 75.7982 73.512C75.3158 74.0052 74.74 74.1922 74.0709 74.0732C73.3489 73.9374 72.901 73.4963 72.7275 72.7496C72.605 72.0844 72.7396 71.4842 73.1315 70.9495C73.4622 70.5943 73.8629 70.4037 74.3336 70.3777ZM74.2124 71.1189C74.503 71.0687 74.7489 71.1534 74.9497 71.373C75.0635 71.5676 75.1275 71.7794 75.1417 72.0083C74.6164 72.0083 74.0911 72.0083 73.5659 72.0083C73.617 71.5748 73.8325 71.2784 74.2124 71.1189Z" fill="white"/>
<path opacity="0.976" fill-rule="evenodd" clip-rule="evenodd" d="M87.3644 70.3777C87.8778 70.4179 88.238 70.686 88.4453 71.1824C88.5116 71.3887 88.5519 71.6005 88.5665 71.8177C88.5766 72.552 88.58 73.286 88.5766 74.0202C88.2669 74.0202 87.957 74.0202 87.6473 74.0202C87.6556 73.2716 87.6454 72.5232 87.617 71.7754C87.5592 71.3019 87.3133 71.143 86.8796 71.2989C86.5792 71.4162 86.3939 71.6386 86.324 71.966C86.3139 72.6649 86.3105 73.3637 86.3139 74.0626C85.9973 74.0626 85.681 74.0626 85.3644 74.0626C85.3644 72.8624 85.3644 71.6625 85.3644 70.4624C85.681 70.4624 85.9973 70.4624 86.3139 70.4624C86.3105 70.6532 86.3139 70.8438 86.324 71.0342C86.467 70.7712 86.6725 70.5842 86.9402 70.473C87.0879 70.445 87.2293 70.4133 87.3644 70.3777Z" fill="white"/>
<path opacity="0.979" fill-rule="evenodd" clip-rule="evenodd" d="M101.001 70.3777C101.805 70.391 102.387 70.7722 102.749 71.5213C103.074 72.6147 102.755 73.4228 101.789 73.9461C100.942 74.2669 100.225 74.0727 99.6373 73.3637C99.2646 72.8097 99.1838 72.2097 99.3949 71.5636C99.7094 70.8425 100.245 70.4474 101.001 70.3777ZM100.94 71.2671C101.481 71.2595 101.801 71.5348 101.9 72.0931C101.937 72.4779 101.819 72.7991 101.546 73.0566C101.181 73.2851 100.831 73.264 100.496 72.9931C100.149 72.5789 100.105 72.1305 100.365 71.6483C100.514 71.4486 100.705 71.3216 100.94 71.2671Z" fill="white"/>
<path opacity="0.978" fill-rule="evenodd" clip-rule="evenodd" d="M114.618 70.3777C115.232 70.4387 115.612 70.7845 115.759 71.4154C115.793 71.5687 115.813 71.7242 115.82 71.8813C115.83 72.5943 115.833 73.3072 115.83 74.0202C115.513 74.0202 115.197 74.0202 114.881 74.0202C114.884 73.279 114.881 72.5378 114.87 71.7966C114.82 71.3135 114.574 71.1477 114.133 71.2989C113.799 71.4298 113.608 71.6803 113.557 72.0507C113.547 72.7212 113.544 73.3919 113.547 74.0626C113.237 74.0626 112.928 74.0626 112.618 74.0626C112.618 72.8624 112.618 71.6625 112.618 70.4624C112.928 70.4624 113.237 70.4624 113.547 70.4624C113.544 70.6672 113.547 70.872 113.557 71.0765C113.792 70.6411 114.146 70.4082 114.618 70.3777Z" fill="white"/>
<path opacity="0.97" fill-rule="evenodd" clip-rule="evenodd" d="M14.6955 70.4201C15.1092 70.3722 15.4931 70.4605 15.847 70.6848C16.1007 70.9057 16.2555 71.188 16.3117 71.5319C16.0492 71.5425 15.7865 71.5461 15.5238 71.5425C15.4392 71.2488 15.2473 71.1147 14.948 71.1401C14.7335 71.1232 14.5584 71.2009 14.4228 71.3731C14.3353 71.5361 14.3724 71.6596 14.5339 71.7437C14.6533 71.7856 14.7745 71.8208 14.8975 71.8496C15.3115 71.8771 15.7021 71.99 16.0693 72.1884C16.3664 72.5021 16.4574 72.8727 16.342 73.3002C16.1746 73.6594 15.9086 73.8957 15.544 74.0097C15.108 74.149 14.677 74.135 14.251 73.9673C13.7962 73.7522 13.547 73.3815 13.5035 72.8555C13.7598 72.8485 14.0157 72.8555 14.2712 72.8767C14.3294 73.1617 14.4978 73.3206 14.7763 73.3532C15.011 73.378 15.2333 73.3356 15.443 73.2261C15.6284 73.0561 15.6284 72.8866 15.443 72.7179C15.3586 72.6742 15.2711 72.6389 15.1804 72.612C14.8228 72.5793 14.4726 72.5086 14.1298 72.4002C13.7132 72.2083 13.5347 71.8729 13.5945 71.3943C13.7057 70.9599 13.965 70.6668 14.3723 70.5154C14.4815 70.4794 14.5892 70.4476 14.6955 70.4201Z" fill="white"/>
<path opacity="0.976" fill-rule="evenodd" clip-rule="evenodd" d="M52.6968 70.4203C53.2344 70.344 53.7126 70.4817 54.1312 70.8332C54.4017 71.1003 54.5565 71.4285 54.5958 71.818C54.2859 71.8216 53.9762 71.818 53.6665 71.8074C53.5421 71.3784 53.2661 71.2019 52.8382 71.278C52.5691 71.3413 52.3974 71.5143 52.323 71.7968C52.2451 72.1564 52.2653 72.5092 52.3837 72.8557C52.562 73.1795 52.8279 73.303 53.1817 73.2263C53.4459 73.1541 53.6075 72.9777 53.6665 72.6969C53.9762 72.6863 54.2859 72.6827 54.5958 72.6863C54.5817 72.9601 54.4975 73.2072 54.3433 73.4275C54.2193 73.5361 54.1015 73.6526 53.9898 73.7769C53.4421 74.1363 52.8631 74.1998 52.2523 73.9675C51.9 73.817 51.6475 73.5594 51.4947 73.1945C51.3335 72.8089 51.2796 72.4065 51.3331 71.9874C51.4119 71.1037 51.8665 70.5812 52.6968 70.4203Z" fill="white"/>
<path opacity="0.976" fill-rule="evenodd" clip-rule="evenodd" d="M62.0102 70.4202C62.3569 70.3637 62.6735 70.4378 62.9597 70.6426C63.0456 70.7184 63.1163 70.8067 63.1718 70.9073C63.1819 70.7593 63.1854 70.611 63.1819 70.4626C63.4985 70.4626 63.8149 70.4626 64.1315 70.4626C64.1315 71.6627 64.1315 72.8626 64.1315 74.0627C63.8149 74.0627 63.4985 74.0627 63.1819 74.0627C63.1854 73.9215 63.1819 73.7802 63.1718 73.6392C62.9199 73.9895 62.6068 74.1271 62.2324 74.0521C61.9783 74.0505 61.7459 73.9763 61.5354 73.8298C61.5291 73.8469 61.5191 73.8609 61.5051 73.8721C61.0869 73.5634 60.8477 73.1398 60.7879 72.6015C60.7208 71.992 60.8489 71.4344 61.1718 70.9285C61.3912 70.646 61.6706 70.4765 62.0102 70.4202ZM62.394 71.1826C62.5389 71.2067 62.6803 71.2527 62.8183 71.3203C62.9882 71.4564 63.0927 71.6364 63.1314 71.8603C63.1775 72.1481 63.191 72.4374 63.1718 72.7286C63.0656 73.0941 62.8298 73.2847 62.4647 73.3003C62.2407 73.2711 62.0589 73.1652 61.9193 72.9827C61.6645 72.4829 61.6645 71.9816 61.9193 71.4791C62.0405 71.3116 62.1987 71.2127 62.394 71.1826Z" fill="white"/>
<path opacity="0.974" fill-rule="evenodd" clip-rule="evenodd" d="M77.6063 70.4201C78.0586 70.3673 78.4693 70.4768 78.8386 70.7483C79.0443 70.9711 79.1722 71.2358 79.2225 71.5425C78.9665 71.5461 78.7105 71.5425 78.4548 71.5319C78.3525 71.2524 78.1574 71.1217 77.8689 71.1401C77.6323 71.1249 77.4473 71.2166 77.3133 71.4154C77.2685 71.5929 77.3325 71.7094 77.5052 71.7648C77.8673 71.8494 78.2309 71.9271 78.5962 71.9978C78.7265 72.0556 78.8546 72.1192 78.98 72.1884C79.1495 72.3496 79.254 72.5508 79.2932 72.792C79.3281 73.3343 79.1093 73.7191 78.6366 73.9461C78.4158 74.0376 78.1869 74.0764 77.9497 74.0626C77.9497 73.8227 77.9497 73.5825 77.9497 73.3426C78.1487 73.3566 78.3138 73.286 78.4447 73.1308C78.5299 72.9652 78.4996 72.8275 78.3538 72.7178C78.2956 72.6837 78.235 72.6556 78.1719 72.6331C77.9107 72.5821 77.6481 72.5397 77.384 72.5061C77.118 72.4601 76.8856 72.3436 76.687 72.1566C76.3589 71.5383 76.4767 71.0334 77.0406 70.6424C77.2208 70.5372 77.4093 70.4631 77.6063 70.4201Z" fill="white"/>
<path opacity="0.984" fill-rule="evenodd" clip-rule="evenodd" d="M82.5159 70.4202C82.8806 70.3588 83.2107 70.4399 83.5058 70.6638C83.585 70.7326 83.6491 70.8137 83.6978 70.9073C83.7079 70.7593 83.7113 70.611 83.7079 70.4626C84.0176 70.4626 84.3275 70.4626 84.6372 70.4626C84.6372 71.6627 84.6372 72.8627 84.6372 74.0628C84.3275 74.0628 84.0176 74.0628 83.7079 74.0628C83.7113 73.9073 83.7079 73.7521 83.6978 73.5969C83.4602 73.9452 83.1335 74.1146 82.7179 74.1051C82.7179 74.0839 82.7179 74.0628 82.7179 74.0416C82.4779 74.0412 82.2591 73.9707 82.0613 73.8298C82.0551 73.847 82.045 73.861 82.0311 73.8722C81.6225 73.574 81.3835 73.1644 81.3139 72.6439C81.2264 71.9651 81.3811 71.3582 81.7785 70.8226C81.9878 70.6123 82.2337 70.4783 82.5159 70.4202ZM82.7988 71.2038C83.224 71.1581 83.5002 71.3451 83.627 71.765C83.7169 72.0986 83.7271 72.4338 83.6573 72.7709C83.5386 73.0964 83.3131 73.2731 82.9806 73.3004C82.6705 73.2667 82.4583 73.0973 82.3442 72.7921C82.1939 72.3203 82.2343 71.8684 82.4654 71.4368C82.5589 71.3275 82.67 71.2498 82.7988 71.2038Z" fill="white"/>
<path opacity="0.974" fill-rule="evenodd" clip-rule="evenodd" d="M108.476 70.4201C108.89 70.3722 109.273 70.4605 109.627 70.6848C109.878 70.9027 110.033 71.1816 110.092 71.5213C109.83 71.5425 109.567 71.5495 109.304 71.5425C109.265 71.3561 109.157 71.2327 108.981 71.1719C108.758 71.1156 108.542 71.1367 108.335 71.2354C108.08 71.4415 108.094 71.6179 108.375 71.7649C108.731 71.8477 109.087 71.9254 109.446 71.9978C109.925 72.1266 110.167 72.4512 110.173 72.972C110.161 73.3072 110.026 73.5753 109.769 73.7767C109.487 73.9936 109.171 74.0889 108.819 74.0626C108.819 73.8227 108.819 73.5825 108.819 73.3426C109.016 73.3508 109.181 73.2803 109.314 73.1308C109.393 72.9682 109.363 72.8305 109.223 72.7179C109.164 72.6854 109.104 72.6573 109.042 72.6331C108.752 72.5819 108.463 72.5325 108.173 72.4849C108.007 72.426 107.845 72.3555 107.688 72.2731C107.509 72.134 107.404 71.947 107.375 71.7119C107.338 71.2568 107.503 70.9074 107.87 70.6636C108.06 70.5421 108.262 70.461 108.476 70.4201Z" fill="white"/>
<path opacity="0.977" fill-rule="evenodd" clip-rule="evenodd" d="M117.709 70.4201C118.044 70.3667 118.354 70.4338 118.638 70.6213C118.716 70.696 118.787 70.7773 118.85 70.8648C118.86 70.731 118.864 70.5967 118.86 70.4624C119.177 70.4692 119.494 70.462 119.81 70.4413C119.833 71.6554 119.837 72.8695 119.82 74.0838C119.754 74.6564 119.461 75.034 118.941 75.2168C118.796 75.2655 118.648 75.3006 118.496 75.3227C117.978 75.3333 117.459 75.3369 116.941 75.3333C116.941 75.0721 116.941 74.8108 116.941 74.5497C117.439 74.5533 117.938 74.5497 118.436 74.5391C118.635 74.5177 118.767 74.4084 118.83 74.2108C118.861 74.0215 118.868 73.8309 118.85 73.6391C118.615 73.9616 118.302 74.1168 117.911 74.105C117.911 74.0838 117.911 74.0626 117.911 74.0414C117.669 74.0478 117.45 73.9771 117.254 73.8297C117.24 73.8479 117.223 73.8618 117.203 73.872C116.637 73.422 116.398 72.8218 116.486 72.0719C116.513 71.6414 116.648 71.2532 116.89 70.9072C117.108 70.6397 117.381 70.4773 117.709 70.4201ZM117.971 71.2036C118.484 71.1657 118.777 71.4129 118.85 71.9449C118.864 72.206 118.864 72.4673 118.85 72.7284C118.641 73.267 118.288 73.4116 117.789 73.1626C117.596 72.9866 117.485 72.7642 117.456 72.4955C117.403 72.1261 117.463 71.7803 117.638 71.4578C117.725 71.3343 117.836 71.2496 117.971 71.2036Z" fill="white"/>
<path opacity="0.978" fill-rule="evenodd" clip-rule="evenodd" d="M22.11 70.4625C22.4502 70.4344 22.7936 70.4344 23.1403 70.4625C23.4749 71.2838 23.8149 72.1027 24.1606 72.9191C24.468 72.0979 24.7812 71.2789 25.1 70.4625C25.4299 70.4344 25.76 70.4344 26.0899 70.4625C25.4374 72.162 24.7909 73.8634 24.1505 75.5663C23.8205 75.5663 23.4904 75.5663 23.1605 75.5663C23.3391 75.0752 23.5209 74.5845 23.706 74.0945C23.1813 72.878 22.6492 71.6675 22.11 70.4625Z" fill="white"/>
<path opacity="0.973" fill-rule="evenodd" clip-rule="evenodd" d="M44.0296 70.4414C44.3462 70.4414 44.6626 70.4414 44.9791 70.4414C44.9791 71.6415 44.9791 72.8415 44.9791 74.0416C44.6626 74.0416 44.3462 74.0416 44.0296 74.0416C44.033 73.8508 44.0296 73.6602 44.0195 73.4698C43.7856 73.8914 43.4352 74.1102 42.969 74.1263C42.2744 74.0266 41.8839 73.61 41.7972 72.8768C41.7681 72.0797 41.758 71.2819 41.7669 70.4838C42.0835 70.4838 42.3999 70.4838 42.7164 70.4838C42.713 71.232 42.7164 71.9804 42.7265 72.7286C42.7908 73.2089 43.0433 73.3677 43.4841 73.2051C43.7678 73.0875 43.9462 72.8724 44.0195 72.5592C44.0296 71.8533 44.033 71.1473 44.0296 70.4414Z" fill="white"/>
<path opacity="0.987" fill-rule="evenodd" clip-rule="evenodd" d="M105.749 70.4414C106.059 70.4414 106.369 70.4414 106.678 70.4414C106.678 71.6415 106.678 72.8415 106.678 74.0416C106.369 74.0416 106.059 74.0416 105.749 74.0416C105.752 73.8438 105.749 73.6462 105.739 73.4486C105.42 74.0094 104.959 74.2106 104.355 74.0522C104 73.941 103.754 73.7047 103.618 73.3427C103.552 73.1655 103.511 72.9819 103.496 72.7921C103.486 72.0227 103.483 71.2532 103.486 70.4838C103.796 70.4838 104.106 70.4838 104.416 70.4838C104.412 71.2038 104.416 71.9238 104.426 72.6439C104.439 72.8281 104.493 72.9975 104.587 73.1521C104.745 73.2684 104.916 73.293 105.103 73.2262C105.453 73.1271 105.665 72.8906 105.739 72.5168C105.749 71.8252 105.752 71.1333 105.749 70.4414Z" fill="white"/>
<path opacity="0.972" fill-rule="evenodd" clip-rule="evenodd" d="M6.17004 70.4626C6.48656 70.4626 6.80305 70.4626 7.11957 70.4626C7.11957 71.6628 7.11957 72.8627 7.11957 74.0628C6.80305 74.0628 6.48656 74.0628 6.17004 74.0628C6.17004 72.8627 6.17004 71.6628 6.17004 70.4626Z" fill="white"/>
<path opacity="0.993" fill-rule="evenodd" clip-rule="evenodd" d="M11.9479 70.4626C12.2576 70.4626 12.5674 70.4626 12.8772 70.4626C12.8772 71.6628 12.8772 72.8627 12.8772 74.0628C12.5674 74.0628 12.2576 74.0628 11.9479 74.0628C11.9479 72.8627 11.9479 71.6628 11.9479 70.4626Z" fill="white"/>
<path opacity="0.988" fill-rule="evenodd" clip-rule="evenodd" d="M49.7872 70.4626C50.0969 70.4626 50.4068 70.4626 50.7166 70.4626C50.7166 71.6628 50.7166 72.8627 50.7166 74.0628C50.4068 74.0628 50.0969 74.0628 49.7872 74.0628C49.7872 72.8627 49.7872 71.6628 49.7872 70.4626Z" fill="white"/>
<path opacity="0.988" fill-rule="evenodd" clip-rule="evenodd" d="M55.2018 70.4626C55.5115 70.4626 55.8214 70.4626 56.1311 70.4626C56.1311 71.6628 56.1311 72.8627 56.1311 74.0628C55.8214 74.0628 55.5115 74.0628 55.2018 74.0628C55.2018 72.8627 55.2018 71.6628 55.2018 70.4626Z" fill="white"/>
<path opacity="0.988" fill-rule="evenodd" clip-rule="evenodd" d="M66.7574 70.4626C67.0672 70.4626 67.3771 70.4626 67.6868 70.4626C67.6868 71.6628 67.6868 72.8627 67.6868 74.0628C67.3771 74.0628 67.0672 74.0628 66.7574 74.0628C66.7574 72.8627 66.7574 71.6628 66.7574 70.4626Z" fill="white"/>
<path opacity="0.988" fill-rule="evenodd" clip-rule="evenodd" d="M71.1417 70.4626C71.4514 70.4626 71.7614 70.4626 72.071 70.4626C72.071 71.6628 72.071 72.8627 72.071 74.0628C71.7614 74.0628 71.4514 74.0628 71.1417 74.0628C71.1417 72.8627 71.1417 71.6628 71.1417 70.4626Z" fill="white"/>
<path opacity="0.993" fill-rule="evenodd" clip-rule="evenodd" d="M110.86 70.4626C111.17 70.4626 111.48 70.4626 111.789 70.4626C111.789 71.6628 111.789 72.8627 111.789 74.0628C111.48 74.0628 111.17 74.0628 110.86 74.0628C110.86 72.8627 110.86 71.6628 110.86 70.4626Z" fill="white"/>
<path opacity="0.961" fill-rule="evenodd" clip-rule="evenodd" d="M76.4147 72.8556C76.6706 72.852 76.9266 72.8556 77.1824 72.8662C77.2468 73.1455 77.4151 73.3077 77.6874 73.3533C77.768 73.3639 77.8488 73.3674 77.9299 73.3639C77.9299 73.611 77.9299 73.8579 77.9299 74.1051C77.4693 74.1265 77.0686 73.9782 76.7278 73.6603C76.5466 73.4261 76.4424 73.158 76.4147 72.8556Z" fill="white"/>
<path opacity="0.962" fill-rule="evenodd" clip-rule="evenodd" d="M107.284 72.8556C107.54 72.852 107.796 72.8556 108.052 72.8662C108.111 73.1485 108.28 73.3109 108.557 73.3533C108.638 73.3639 108.718 73.3674 108.799 73.3639C108.799 73.611 108.799 73.8579 108.799 74.1051C108.378 74.1237 108.001 74 107.668 73.7345C107.439 73.4914 107.312 73.1985 107.284 72.8556Z" fill="white"/>
<path opacity="0.991" fill-rule="evenodd" clip-rule="evenodd" d="M60.5576 0.530029C60.6444 0.53653 60.7133 0.576943 60.7642 0.651273C60.9489 0.983837 61.0922 1.33602 61.1938 1.70782C61.2379 1.88131 61.282 2.05451 61.326 2.22744C61.7007 1.92016 62.1275 1.75561 62.6065 1.7338C62.8278 1.72234 63.0482 1.73389 63.2675 1.76845C63.5627 1.82226 63.8547 1.89154 64.1432 1.97629C63.8995 2.09419 63.6571 2.21544 63.4161 2.34002C63.2309 2.47058 63.0602 2.6207 62.9039 2.79036C64.0619 2.73727 65.1468 3.00863 66.159 3.60442C66.9413 4.06603 67.6382 4.64626 68.2492 5.34513C68.7745 5.95166 69.2427 6.5983 69.6537 7.28503C68.5677 6.34771 67.3424 5.6751 65.9772 5.26719C65.5176 5.1303 65.0493 5.05236 64.5728 5.03336C64.4512 5.04334 64.33 5.05776 64.2093 5.07666C64.9941 5.43802 65.699 5.92299 66.3242 6.53158C67.402 7.58713 68.1813 8.84863 68.6623 10.3161C68.9052 11.0988 69.0319 11.9013 69.0423 12.7237C68.1147 10.8849 66.8618 9.3289 65.2833 8.05579C64.8884 7.74625 64.456 7.50666 63.9862 7.33699C64.1999 7.66855 64.4146 8.00341 64.6306 8.34158C65.7963 10.2441 66.3251 12.3283 66.2168 14.5943C66.2017 14.9876 66.1768 15.3802 66.1425 15.7721C65.9148 14.77 65.587 13.8058 65.1594 12.8795C64.6138 11.6574 63.9693 10.5027 63.2261 9.41545C63.1007 9.23779 62.9631 9.07037 62.813 8.91315C63.3471 11.607 63.3527 14.3033 62.8296 17.0018C62.7203 15.6401 62.5386 14.2891 62.2843 12.9488C62.1159 12.029 61.8681 11.1341 61.5408 10.2642C61.4641 10.0803 61.3787 9.90136 61.2847 9.72722C61.1936 10.5482 61.0945 11.368 60.9872 12.1867C61.0809 12.1867 61.1744 12.1867 61.2681 12.1867C61.21 13.3237 61.1548 14.4611 61.1029 15.5989C61.1801 15.5989 61.2571 15.5989 61.3342 15.5989C61.2787 16.8042 61.2126 18.008 61.136 19.2102C61.2462 19.2159 61.3562 19.2218 61.4664 19.2275C61.3486 20.4583 61.2468 21.6908 61.1607 22.9254C61.4178 23.0948 61.6602 23.2854 61.8878 23.497C61.9373 23.5606 61.9869 23.624 62.0365 23.6875C62.0447 23.7681 62.0475 23.849 62.0447 23.93C61.0588 23.93 60.073 23.93 59.0871 23.93C59.0843 23.8547 59.0871 23.7797 59.0953 23.7049C59.3599 23.3926 59.6627 23.1328 60.0041 22.9254C59.9251 21.7731 59.8342 20.6213 59.7315 19.47C59.7343 19.421 59.7369 19.3718 59.7397 19.3228C59.8229 19.2902 59.9081 19.2642 59.9958 19.2448C60.0063 19.209 60.0119 19.1714 60.0124 19.1323C59.9225 17.9891 59.8342 16.8459 59.748 15.7028C59.8306 15.7028 59.9133 15.7028 59.9958 15.7028C59.9473 14.548 59.8977 13.3933 59.8471 12.2387C59.9157 12.2364 59.9818 12.222 60.0454 12.1954C59.9311 11.3852 59.8182 10.574 59.7067 9.76186C58.9385 12.0447 58.4924 14.3945 58.3683 16.8113C58.0506 15.9889 57.8633 15.1344 57.8065 14.2479C57.6727 12.5293 57.816 10.8376 58.2361 9.17296C57.0418 10.5035 56.1441 12.0335 55.5428 13.7629C55.3355 14.4014 55.1594 15.048 55.0141 15.7028C54.9513 15.3336 54.8909 14.9641 54.8323 14.5943C54.7451 13.6315 54.8277 12.6847 55.0802 11.7537C55.501 10.2509 56.1318 8.85662 56.9721 7.57081C56.5104 7.78105 56.0754 8.04086 55.6668 8.35024C54.9181 8.93295 54.2489 9.60557 53.6592 10.3681C53.0581 11.172 52.5019 12.0091 51.9904 12.8795C52.1801 11.4864 52.5821 10.1643 53.1966 8.91315C53.9039 7.51923 54.909 6.42517 56.212 5.63092C56.4614 5.49445 56.7147 5.36744 56.9721 5.24987C56.4384 5.1488 55.9042 5.1488 55.3694 5.24987C54.0677 5.47616 52.9276 6.04484 51.9491 6.95594C51.8851 6.90342 51.8301 6.8428 51.7838 6.77407C52.2672 6.04185 52.8069 5.35479 53.4031 4.71293C54.4283 3.73415 55.6346 3.15102 57.0217 2.96356C57.4224 2.9098 57.8244 2.87226 58.2279 2.85098C57.9395 2.46298 57.5651 2.21473 57.1043 2.10619C57.6365 1.73831 58.2148 1.63149 58.8392 1.78577C59.1707 1.86573 59.4709 2.01296 59.7397 2.22744C59.8215 1.79107 59.9594 1.37537 60.1528 0.980362C60.2303 0.835592 60.3267 0.705688 60.442 0.590651C60.4821 0.569648 60.5206 0.54944 60.5576 0.530029Z" fill="white"/>
<path fill-rule="evenodd" clip-rule="evenodd" d="M60.7175 44.9286C48.0169 44.9286 37.6896 34.0985 37.6896 20.7797L37.8604 17.4351H41.4674V12.3783H41.8661V11.562H43.5937L44.0872 12.438H44.9795V18.8883H45.7009V19.7842H45.9667V14.608H48.8713V15.9419H49.8395V18.4304H51.4531V16.0215H53.6173L54.3957 17.0568V19.8041H58.838V20.5009H53.7312V17.2957L53.2946 16.7183H52.1176V19.9634H51.2253V19.1273H49.175V16.6387H48.2068V15.3048H46.6311V20.5009H45.0365V19.5851H44.3151V13.1348H43.7076L43.214 12.2588H42.5305V13.0751H42.1319V18.1318H38.5059L38.373 20.7797C38.373 33.6804 48.3967 44.1921 60.7175 44.1921C73.0192 44.1921 83.024 33.7202 83.0618 20.8593H80.7837V16.7383H79.4358V14.6279H77.8601V13.732H75.9427V14.3691L75.563 14.827V18.6494H73.6077V15.8025L73.1141 15.2252H72.032V14.2696H70.798V20.5009H68.8047V18.1916H67.0392V20.5009H62.3501V19.8041H66.3747V17.4948H69.4502V19.8041H70.1146V13.5728H72.6775V14.5284H73.3989L74.2532 15.5437V17.9526H74.8796V14.5682L75.2593 14.1103V13.0352H78.5246V13.951H80.1003V16.0613H81.4482V20.1824H83.7263V20.7996C83.7263 34.1183 73.3989 44.9286 60.7175 44.9286Z" fill="white"/>
<path fill-rule="evenodd" clip-rule="evenodd" d="M51.9039 35.2026C51.7139 35.2026 51.5239 35.2625 51.3529 35.3624C50.8779 35.7219 50.7069 36.401 51.011 36.9403C51.1249 37.1999 51.3719 37.3597 51.7329 37.4596C51.8279 37.4596 51.9419 37.4795 52.075 37.4795C53.4999 37.4795 54.7159 36.5608 55.7609 35.7019L55.9509 35.5421L56.0839 35.7619C56.5589 36.6007 57.3759 37.1999 58.2499 37.3797C58.3068 37.3797 58.3638 37.3797 58.4398 37.3797C59.0669 37.3797 59.7509 37.0601 59.8839 36.381C59.9598 35.8817 59.6748 35.3424 59.2188 35.1027C58.9338 34.9829 58.5918 35.0029 58.1168 35.2026C58.0028 35.2426 57.9648 35.4023 57.9078 35.622C57.8508 35.8617 57.7748 36.2013 57.4329 36.2013C57.1859 36.2013 56.7869 35.9816 56.6349 35.682C56.5589 35.5222 56.5589 35.3424 56.6539 35.2026C57.3759 34.0641 58.3068 33.2652 59.2188 32.4863C59.6368 32.1268 60.0738 31.7673 60.4728 31.3678L60.6248 31.228L60.7768 31.3678C61.1758 31.7473 61.5938 32.1068 62.0118 32.4663C62.9808 33.2652 63.9688 34.0841 64.5958 35.3224C64.6338 35.3824 64.6718 35.4822 64.6148 35.6221C64.5198 35.8617 64.1398 36.2013 63.8358 36.2212C63.6648 36.2612 63.5508 36.2013 63.4938 36.1413C63.3798 36.0215 63.3988 35.8817 63.3988 35.7419C63.3988 35.642 63.3988 35.5421 63.3798 35.5022C63.2468 35.2026 62.9618 35.1427 62.6578 35.0628C62.1068 34.923 61.5178 35.3624 61.3848 35.9816C61.3278 36.2612 61.3658 36.5408 61.5178 36.7805C61.8218 37.1999 62.2398 37.4196 62.7148 37.4196C63.6648 37.4196 64.6908 36.5807 65.1848 35.7818L65.3177 35.5621L65.5078 35.7219C66.4578 36.5208 67.6927 37.4396 68.9467 37.4396C69.2887 37.4396 69.6117 37.3797 69.9157 37.2399C70.1437 37.14 70.3147 36.9203 70.3907 36.6407C70.4667 36.3411 70.4287 36.0215 70.2577 35.7818C70.0487 35.4622 69.7067 35.2625 69.3267 35.2625C68.9467 35.2625 68.5857 35.4622 68.3957 35.7619L68.3007 35.9216L68.1298 35.8617C67.4837 35.6021 66.6858 35.2226 66.2868 34.4836C66.1348 34.2439 66.2108 33.8644 66.3248 33.6048C66.4578 33.3651 66.5907 33.3052 66.7048 33.3052C66.7427 33.3052 66.7997 33.3251 66.8377 33.3451C67.1417 33.5448 67.4647 33.6647 67.7687 33.6647C68.3197 33.6647 68.7187 33.3251 68.8517 32.7859C68.9087 32.5063 68.8517 32.2067 68.6807 31.967C68.5097 31.7073 68.2627 31.5276 67.9777 31.4477C67.9398 31.4477 67.8637 31.4277 67.8068 31.4277C67.3127 31.4277 66.8187 31.6874 66.4958 32.0868C66.2868 32.3465 66.1917 32.666 66.0967 33.0056C66.0018 33.3052 65.9067 33.6048 65.7358 33.8844L65.5837 34.1041L61.5748 30.1694L61.7458 29.9897C66.0588 25.6355 71.8157 24.0976 76.5466 23.6382C75.9386 23.5783 75.3306 23.5583 74.7227 23.5583C69.4977 23.5583 64.5577 25.4558 60.8338 28.8712L60.7008 28.991L60.5489 28.8712C58.5919 27.3532 55.9699 25.4957 52.968 24.557C50.1559 23.6982 47.344 23.3586 44.6461 23.5983C49.377 24.0377 55.1529 25.5756 59.4659 29.9497L59.6368 30.1295L55.6659 34.0042L55.5139 33.7845C55.3429 33.5049 55.2479 33.2053 55.1529 32.9057C55.0579 32.5662 54.9629 32.2466 54.7539 31.987C54.4689 31.6874 54.1649 31.5076 53.7469 31.3278C53.101 31.188 52.5309 31.5675 52.3979 32.2466C52.322 32.7459 52.6069 33.2852 53.063 33.5249C53.1199 33.5448 53.215 33.5648 53.3289 33.5648C53.6329 33.5648 53.9179 33.445 54.2029 33.3052L54.3359 33.2452C54.3929 33.2253 54.4309 33.2253 54.4689 33.2253C54.6399 33.2253 54.8109 33.3451 54.9249 33.5648C55.0389 33.8045 55.0959 34.164 54.9439 34.4037C54.564 35.1227 53.7659 35.5022 53.1199 35.7618L52.968 35.8218L52.873 35.682C52.6259 35.4023 52.2649 35.2026 51.9039 35.2026ZM52.056 37.9389C51.923 37.9389 51.7899 37.9389 51.638 37.9189C51.1249 37.7791 50.783 37.5394 50.593 37.1599C50.194 36.4209 50.403 35.4822 51.087 34.9629C51.7709 34.5435 52.6069 34.7432 53.101 35.3224C53.6519 35.1027 54.2599 34.7632 54.564 34.2239C54.5829 34.184 54.6019 34.1041 54.564 33.9643C54.5259 33.8444 54.4879 33.7845 54.4499 33.7446L54.3549 33.7845C54.0509 33.9243 53.6899 34.0641 53.3099 34.0641C53.158 34.0641 53.025 34.0442 52.873 33.9843C52.227 33.6447 51.847 32.9057 51.942 32.1867C52.113 31.3878 52.7209 30.8685 53.4619 30.8685C53.5949 30.8685 53.709 30.8884 53.8419 30.9084L53.8799 30.9284C54.3549 31.1281 54.7159 31.3278 55.0769 31.7073C55.3619 32.0469 55.4759 32.4264 55.5709 32.8058C55.6279 32.9856 55.6849 33.1454 55.7419 33.3052L58.9719 30.1494C54.051 25.296 47.23 24.1177 42.3471 23.9578L40.3331 23.8979L42.3091 23.4984C45.748 22.7994 49.415 23.0191 53.0819 24.1375C56.1029 25.0563 58.7059 26.8938 60.6628 28.4118C64.4438 24.9764 69.4217 23.099 74.7036 23.099C76.1096 23.099 77.4966 23.2388 78.8646 23.4984L80.8975 23.8979L78.8456 23.9578C73.9626 24.0976 67.1417 25.296 62.2208 30.1494L65.4507 33.3051C65.5078 33.1454 65.5648 32.9656 65.6217 32.8058C65.7357 32.4463 65.8497 32.0668 66.1157 31.7273C66.5717 31.1481 67.3507 30.8085 68.0347 30.9284C68.4527 31.0282 68.7947 31.2879 69.0227 31.6474C69.2697 32.0269 69.3457 32.4463 69.2507 32.8458C69.0607 33.6047 68.4907 34.0841 67.7497 34.0841C67.4077 34.0841 67.0467 33.9842 66.7047 33.7845C66.6477 33.9043 66.5907 34.124 66.6477 34.2039C66.9517 34.7632 67.5597 35.1027 68.1107 35.3224C68.3957 34.9629 68.8326 34.7632 69.3077 34.7632C69.8397 34.7632 70.3336 35.0228 70.6187 35.4822C70.8657 35.8417 70.9417 36.3011 70.8087 36.7405C70.6946 37.1599 70.4286 37.4795 70.0867 37.6393C69.7256 37.7991 69.3457 37.879 68.9467 37.879C67.6357 37.879 66.3817 37.0201 65.4127 36.2212C64.8047 37.0601 63.7408 37.859 62.7148 37.859C62.1068 37.859 61.5558 37.5594 61.1568 37.0201C60.9288 36.6606 60.8528 36.2212 60.9478 35.8217C61.1188 35.0828 61.7648 34.5235 62.4487 34.5235C62.5628 34.5235 62.6577 34.5435 62.7718 34.5634C63.1328 34.6633 63.5508 34.7632 63.7787 35.2226C63.8737 35.3624 63.8737 35.5621 63.8737 35.7219C63.9687 35.7019 64.1397 35.5421 64.2157 35.4622C63.6458 34.3637 62.7338 33.6048 61.7838 32.8258C61.4038 32.5262 61.0237 32.2066 60.6628 31.8671C60.3018 32.2266 59.9028 32.5462 59.5418 32.8657C58.6108 33.6647 57.7558 34.4037 57.0718 35.4822C57.0908 35.5621 57.3378 35.7418 57.4708 35.7418C57.4898 35.7019 57.5278 35.5821 57.5468 35.5022C57.6038 35.2425 57.6988 34.903 58.0219 34.7632C58.6108 34.5235 59.0478 34.5035 59.4848 34.6833C60.1118 35.0228 60.4918 35.7618 60.3968 36.4609C60.1878 37.5394 59.1238 37.9389 58.2498 37.839C57.3188 37.6593 56.4449 37.0601 55.8939 36.2212C54.7729 37.08 53.519 37.9389 52.056 37.9389Z" fill="white"/>
</svg>
