<svg width="30" height="27" viewBox="0 0 30 27" fill="none" xmlns="http://www.w3.org/2000/svg">
<path opacity="0.4" fill-rule="evenodd" clip-rule="evenodd" d="M11.6667 27H18.3333C23.0149 27 25.3557 27 27.0372 25.8969C27.765 25.4193 28.3901 24.8056 28.8765 24.091C30 22.4402 30 20.1418 30 15.5454C30 10.9491 30 8.65082 28.8765 6.9999C28.3901 6.28521 27.765 5.67156 27.0372 5.19402C25.9566 4.4852 24.604 4.23184 22.533 4.14129C21.5447 4.14129 20.6939 3.40602 20.5 2.45454C20.2092 1.02734 18.9328 0 17.4506 0H12.5494C11.0671 0 9.79073 1.02734 9.5 2.45454C9.30618 3.40602 8.45527 4.14129 7.467 4.14129C5.396 4.23184 4.04332 4.4852 2.96286 5.19402C2.23492 5.67156 1.60992 6.28521 1.12353 6.9999C0 8.65082 0 10.9491 0 15.5454C0 20.1418 0 22.4402 1.12353 24.091C1.60992 24.8056 2.23492 25.4193 2.96286 25.8969C4.64436 27 6.98513 27 11.6667 27ZM15 9.40909C11.5482 9.40909 8.75 12.1564 8.75 15.5454C8.75 18.9345 11.5482 21.6818 15 21.6818C18.4518 21.6818 21.25 18.9345 21.25 15.5454C21.25 12.1564 18.4518 9.40909 15 9.40909ZM15 11.8636C12.9289 11.8636 11.25 13.512 11.25 15.5454C11.25 17.5788 12.9289 19.2273 15 19.2273C17.0711 19.2273 18.75 17.5788 18.75 15.5454C18.75 13.512 17.0711 11.8636 15 11.8636ZM22.0833 10.6364C22.0833 9.95856 22.643 9.40909 23.3334 9.40909H25C25.6903 9.40909 26.25 9.95856 26.25 10.6364C26.25 11.3142 25.6903 11.8636 25 11.8636H23.3334C22.643 11.8636 22.0833 11.3142 22.0833 10.6364Z" fill="#86B726"/>
</svg>
