<svg width="24" height="20" viewBox="0 0 24 20" fill="none" xmlns="http://www.w3.org/2000/svg">
<path d="M3.83678 0C2.99413 0 2.27196 0.29966 1.66744 0.904201C1.06292 1.5087 0.759521 2.2346 0.759521 3.07725V16.2644C0.759521 17.107 1.06292 17.8331 1.66744 18.4376C2.27196 19.0421 2.99413 19.3417 3.83678 19.3417H20.5441C21.3868 19.3417 22.1088 19.0421 22.7133 18.4376C23.3178 17.8331 23.6213 17.107 23.6213 16.2644V6.5936C23.6213 5.75093 23.3178 5.02877 22.7133 4.42424C22.1088 3.81974 21.3868 3.51633 20.5441 3.51633H11.3123V3.07725C11.3123 2.2346 11.0089 1.5087 10.4043 0.904201C9.79982 0.29966 9.07765 0 8.235 0H3.83678ZM9.2434 5.46241C10.1034 5.46241 10.8463 5.7435 11.4723 6.30708L16.4138 10.8392C16.4682 10.8891 16.4956 10.9431 16.4956 11.003C16.4956 11.0827 16.4123 11.2006 16.2463 11.3527C16.0803 11.5049 15.9538 11.5797 15.8668 11.5797C15.796 11.5797 15.7314 11.5552 15.677 11.5053L10.7281 6.96569C10.2981 6.58167 9.80605 6.38893 9.25083 6.38893C8.67383 6.38893 8.18956 6.57675 7.79221 6.95081C7.39483 7.32485 7.19311 7.7766 7.19311 8.30523C7.19311 8.8289 7.40083 9.27692 7.81454 9.65596L14.1514 15.4718C14.4943 15.786 14.8883 15.9407 15.3347 15.9407C15.683 15.9407 15.973 15.8376 16.2017 15.6282C16.4303 15.4187 16.544 15.1548 16.544 14.8356C16.544 14.4266 16.3734 14.0633 16.0305 13.7491L11.2862 9.40294C11.1447 9.28324 10.9801 9.22433 10.795 9.22433C10.6372 9.22433 10.5078 9.27097 10.4043 9.36572C10.3009 9.46048 10.2481 9.58203 10.2481 9.72667C10.2481 9.88626 10.3166 10.0311 10.4527 10.1657L13.8016 13.2318C13.856 13.2817 13.8798 13.3394 13.8798 13.3993C13.8798 13.4791 13.7955 13.5944 13.6267 13.7491C13.458 13.9037 13.3306 13.9797 13.2435 13.9797C13.1781 13.9797 13.1193 13.9552 13.0648 13.9053L9.71595 10.8392C9.37302 10.535 9.20246 10.1655 9.20246 9.72667C9.20246 9.31771 9.35731 8.96906 9.66758 8.68478C9.97785 8.40051 10.3561 8.25686 10.8025 8.25686C11.2815 8.25686 11.6872 8.41524 12.0193 8.72943L16.7635 13.0755C17.3079 13.5643 17.5784 14.1523 17.5784 14.8356C17.5784 15.4191 17.3647 15.9077 16.9347 16.3017C16.5047 16.6957 15.9715 16.8933 15.3347 16.8933C14.5998 16.8933 13.9589 16.6404 13.4146 16.1417L7.07033 10.3369C6.45523 9.76336 6.14753 9.09071 6.14753 8.31268C6.14753 7.51971 6.44925 6.84578 7.048 6.29218C7.64677 5.7386 8.37791 5.46241 9.2434 5.46241Z" fill="#C6DAA0"/>
</svg>
