<svg width="19" height="19" viewBox="0 0 19 19" fill="none" xmlns="http://www.w3.org/2000/svg">
<path d="M6.02403 6.28391L13.6249 1.57761C13.6717 1.54913 13.741 1.52065 13.7937 1.55074C13.8421 1.57815 13.8985 1.66145 13.8985 1.8071V17.4158C13.8985 17.5625 13.8405 17.6463 13.7905 17.6732C13.7335 17.7033 13.6636 17.6721 13.6163 17.6404L6.49374 12.8621C6.37067 12.7788 6.20353 12.8121 6.1213 12.9357C6.03854 13.0588 6.07132 13.2259 6.19493 13.3082L13.3186 18.087C13.4546 18.1773 13.5991 18.223 13.7405 18.223C13.8458 18.223 13.949 18.1977 14.0452 18.1461C14.2897 18.015 14.4359 17.742 14.4359 17.4163V1.8071C14.4359 1.48625 14.294 1.21538 14.057 1.0821C13.8415 0.961177 13.5819 0.974076 13.3433 1.11918L5.7408 5.82656C5.6145 5.90502 5.57581 6.07055 5.65373 6.19685C5.7322 6.32261 5.89773 6.36184 6.02403 6.28391Z" fill="black" stroke="black"/>
<path d="M4.76203 12.5906V7.21631C4.76203 6.77185 4.40034 6.41016 3.95588 6.41016H1.80615C1.36169 6.41016 1 6.77185 1 7.21631V12.5906C1 13.0351 1.36169 13.3968 1.80615 13.3968H3.95588C4.40034 13.3968 4.76203 13.0351 4.76203 12.5906ZM1.53743 12.5906V7.21631C1.53743 7.06797 1.65782 6.94759 1.80615 6.94759H3.95588C4.10421 6.94759 4.2246 7.06797 4.2246 7.21631V12.5906C4.2246 12.739 4.10421 12.8594 3.95588 12.8594H1.80615C1.65782 12.8594 1.53743 12.739 1.53743 12.5906Z" fill="black" stroke="black"/>
<path d="M16.3549 11.2469H16.048C15.8997 11.2469 15.7793 11.3673 15.7793 11.5156C15.7793 11.6639 15.8997 11.7843 16.048 11.7843H16.3549C17.44 11.7843 18.1977 10.9046 18.1977 9.61525C18.1977 8.36088 17.44 7.48486 16.3549 7.48486H16.048C15.8997 7.48486 15.7793 7.60525 15.7793 7.75358C15.7793 7.90191 15.8997 8.0223 16.048 8.0223H16.3549C17.3185 8.0223 17.6603 8.88058 17.6603 9.64427C17.6603 10.4418 17.2567 11.2469 16.3549 11.2469Z" fill="black" stroke="black"/>
</svg>
