<svg width="30" height="29" viewBox="0 0 30 29" fill="none" xmlns="http://www.w3.org/2000/svg">
<path d="M29.1946 14.1949C29.1946 22.0346 22.8393 28.3899 14.9996 28.3899C7.15998 28.3899 0.804688 22.0346 0.804688 14.1949C0.804688 6.35529 7.15998 0 14.9996 0C22.8393 0 29.1946 6.35529 29.1946 14.1949ZM24.1976 14.3025C24.1957 11.0571 22.4657 8.05833 19.6572 6.432C16.8487 4.80567 13.3867 4.79792 10.571 6.41166C9.73117 6.89571 8.97348 7.50998 8.3262 8.23153L8.3262 6.99975C8.3262 6.60762 8.00831 6.28974 7.61618 6.28974C7.22405 6.28974 6.90617 6.60762 6.90617 6.99975V9.97608C6.90716 10.3675 7.22475 10.6843 7.61618 10.6843H10.5889C10.9667 10.6653 11.2633 10.3535 11.2633 9.97519C11.2633 9.59692 10.9667 9.28507 10.5889 9.26607L9.30337 9.26607C10.7605 7.58564 12.8758 6.6212 15.1 6.62323C19.3379 6.62323 22.7751 10.0598 22.7757 14.2995C22.7757 18.5404 19.3391 21.9776 15.0994 21.9782C10.8585 21.9782 7.4214 18.5416 7.42075 14.3019C7.42058 13.9098 7.10256 13.592 6.71043 13.5922C6.3183 13.5924 6.00055 13.9104 6.00071 14.3025C6.00071 19.3279 10.0746 23.4018 15.1 23.4018C20.1255 23.4018 24.1994 19.3279 24.1994 14.3025L24.1976 14.3025ZM15.6577 14.125V9.3342C15.6387 8.95641 15.3268 8.65984 14.9485 8.65984C14.5703 8.65984 14.2584 8.95641 14.2394 9.3342V14.428C14.239 14.6475 14.3403 14.8548 14.5137 14.9892L17.2695 17.7432C17.5468 18.0205 17.9963 18.0205 18.2736 17.7433C18.5509 17.466 18.5509 17.0164 18.2736 16.7391L15.6577 14.125Z" fill="#C6DAA0"/>
</svg>
