<svg width="71" height="71" viewBox="0 0 71 71" fill="none" xmlns="http://www.w3.org/2000/svg">
<path d="M45.3209 52.4663L38.1991 45.4042C34.7627 41.9959 33.0442 40.292 31.0726 39.6691C29.3384 39.1213 27.4743 39.1414 25.7524 39.7267C23.7944 40.3923 22.1134 42.133 18.7514 45.6143L1.68824 62.4678M45.3209 52.4663L46.7785 51.0211C50.2193 47.6089 51.9394 45.9029 53.9136 45.28C55.6495 44.7322 57.5148 44.754 59.238 45.3414C61.1968 46.0092 62.8777 47.7545 66.239 51.2448L69.8108 54.8396M45.3209 52.4663L62.446 69.6251M1.68824 62.4678C1.82072 63.5437 2.04632 64.3942 2.43069 65.1486C3.24931 66.7552 4.55558 68.0616 6.1623 68.8801C7.98884 69.8108 10.3799 69.8108 15.1622 69.8108H56.1486C58.9421 69.8108 60.9201 69.8108 62.446 69.6251M1.68824 62.4678C1.5 60.9394 1.5 58.9558 1.5 56.1486V15.1622C1.5 10.38 1.5 7.98884 2.43069 6.1623C3.24931 4.55558 4.55558 3.24931 6.1623 2.43069C7.98884 1.5 10.3799 1.5 15.1622 1.5H56.1486C60.9308 1.5 63.3221 1.5 65.1486 2.43069C66.7552 3.24931 68.0616 4.55558 68.8801 6.1623C69.8108 7.98884 69.8108 10.38 69.8108 15.1622V54.8396M69.8108 54.8396V56.1486C69.8108 60.9308 69.8108 63.3221 68.8801 65.1486C68.0616 66.7552 66.7552 68.0616 65.1486 68.8801C64.3891 69.2673 63.5318 69.4931 62.446 69.6251M57.0025 22.8467C57.0025 27.5627 53.1797 31.3855 48.4637 31.3855C43.7477 31.3855 39.9248 27.5627 39.9248 22.8467C39.9248 18.1308 43.7477 14.3078 48.4637 14.3078C53.1797 14.3078 57.0025 18.1308 57.0025 22.8467Z" stroke="#107CAD" stroke-width="2" stroke-linecap="round" stroke-linejoin="round"/>
</svg>
