<svg width="358" height="103" viewBox="0 0 358 103" fill="none" xmlns="http://www.w3.org/2000/svg">
<path opacity="0.991" fill-rule="evenodd" clip-rule="evenodd" d="M304.304 -6.10352e-05C304.505 0.0149822 304.664 0.10851 304.782 0.280525C305.209 1.05016 305.541 1.86519 305.776 2.72563C305.878 3.12711 305.98 3.52795 306.082 3.92814C306.949 3.21702 307.937 2.83622 309.045 2.78576C309.557 2.75922 310.068 2.78596 310.575 2.86592C311.258 2.99046 311.934 3.1508 312.602 3.34693C312.038 3.61978 311.477 3.90037 310.919 4.18869C310.49 4.49084 310.095 4.83824 309.734 5.23086C312.413 5.10801 314.924 5.736 317.267 7.1148C319.077 8.18307 320.69 9.52588 322.104 11.1432C323.319 12.5469 324.403 14.0433 325.354 15.6326C322.841 13.4634 320.005 11.9068 316.846 10.9628C315.782 10.6461 314.699 10.4657 313.596 10.4217C313.314 10.4448 313.034 10.4782 312.755 10.5219C314.571 11.3582 316.202 12.4805 317.649 13.8889C320.143 16.3317 321.947 19.2511 323.06 22.6472C323.622 24.4586 323.915 26.3158 323.939 28.2189C321.793 23.9635 318.893 20.3626 315.24 17.4163C314.326 16.7 313.325 16.1455 312.238 15.7528C312.733 16.5202 313.23 17.2951 313.73 18.0777C316.427 22.4806 317.651 27.304 317.401 32.5479C317.365 33.4583 317.308 34.3668 317.228 35.2736C316.702 32.9546 315.943 30.7233 314.953 28.5796C313.691 25.7512 312.199 23.079 310.479 20.5629C310.189 20.1517 309.871 19.7643 309.523 19.4005C310.759 25.6348 310.772 31.8745 309.562 38.1196C309.309 34.9682 308.888 31.8416 308.3 28.74C307.91 26.6114 307.337 24.5404 306.579 22.527C306.402 22.1016 306.204 21.6874 305.986 21.2844C305.776 23.1843 305.546 25.0816 305.298 26.9763C305.515 26.9763 305.731 26.9763 305.948 26.9763C305.813 29.6075 305.686 32.2396 305.566 34.8728C305.744 34.8728 305.922 34.8728 306.101 34.8728C305.973 37.6622 305.82 40.448 305.642 43.2302C305.897 43.2435 306.152 43.2571 306.407 43.2703C306.134 46.1187 305.899 48.971 305.7 51.8282C306.295 52.2202 306.855 52.6611 307.382 53.1509C307.497 53.2981 307.611 53.4448 307.726 53.5919C307.745 53.7783 307.752 53.9655 307.745 54.153C305.464 54.153 303.182 54.153 300.901 54.153C300.894 53.9787 300.901 53.8051 300.92 53.632C301.532 52.9092 302.233 52.308 303.023 51.8282C302.84 49.1614 302.63 46.4958 302.392 43.8315C302.398 43.718 302.405 43.6042 302.411 43.4908C302.603 43.4154 302.801 43.3553 303.004 43.3104C303.028 43.2274 303.041 43.1404 303.042 43.0499C302.834 40.4043 302.63 37.7588 302.43 35.1133C302.621 35.1133 302.813 35.1133 303.004 35.1133C302.891 32.4409 302.777 29.7687 302.66 27.0965C302.818 27.0913 302.971 27.0579 303.118 26.9963C302.854 25.1214 302.593 23.2441 302.335 21.3646C300.557 26.6476 299.524 32.0857 299.237 37.6786C298.502 35.7753 298.069 33.7978 297.937 31.7462C297.627 27.769 297.959 23.8542 298.931 20.0017C296.167 23.0808 294.09 26.6216 292.698 30.6239C292.219 32.1015 291.811 33.5979 291.475 35.1133C291.329 34.259 291.19 33.4038 291.054 32.5479C290.852 30.3199 291.043 28.1286 291.628 25.9742C292.602 22.4964 294.061 19.2696 296.006 16.294C294.938 16.7805 293.931 17.3818 292.985 18.0977C291.253 19.4463 289.704 21.0029 288.339 22.7675C286.948 24.6279 285.661 26.5653 284.477 28.5796C284.916 25.3557 285.846 22.2959 287.269 19.4005C288.906 16.1746 291.232 13.6427 294.247 11.8046C294.824 11.4888 295.41 11.1948 296.006 10.9228C294.771 10.6889 293.535 10.6889 292.297 10.9228C289.284 11.4464 286.646 12.7625 284.382 14.871C284.234 14.7495 284.106 14.6092 283.999 14.4501C285.118 12.7556 286.367 11.1656 287.747 9.68016C290.119 7.41503 292.911 6.06553 296.121 5.6317C297.048 5.50728 297.978 5.42042 298.912 5.37116C298.245 4.47324 297.378 3.89872 296.312 3.64756C297.544 2.79618 298.882 2.54898 300.327 2.90601C301.094 3.09107 301.789 3.43179 302.411 3.92814C302.6 2.91827 302.919 1.95626 303.367 1.04212C303.546 0.707084 303.769 0.406456 304.036 0.140232C304.129 0.0916262 304.218 0.0448604 304.304 -6.10352e-05Z" fill="white"/>
<path opacity="0.981" fill-rule="evenodd" clip-rule="evenodd" d="M79.0788 41.0456C79.9074 41.0456 80.7357 41.0456 81.5643 41.0456C81.5708 46.1094 81.5643 51.1735 81.5452 56.2373C81.5028 57.5228 80.9865 58.5317 79.9965 59.2636C79.5935 59.515 79.1603 59.6753 78.6964 59.7447C75.6381 59.8036 72.579 59.8236 69.5192 59.8048C69.5192 58.8159 69.5192 57.8275 69.5192 56.8386C72.4379 56.8454 75.3571 56.8386 78.2758 56.8185C78.6662 56.8053 78.9274 56.6113 79.0597 56.2373C79.0788 51.1735 79.0853 46.1094 79.0788 41.0456Z" fill="white"/>
<path opacity="0.988" fill-rule="evenodd" clip-rule="evenodd" d="M154.868 41.0856C155.683 41.0856 156.499 41.0856 157.315 41.0856C157.309 46.123 157.315 51.1599 157.334 56.1972C157.564 56.495 157.864 56.6754 158.233 56.7383C158.448 56.7772 158.665 56.8037 158.883 56.8185C159.878 56.855 160.872 56.8417 161.865 56.7784C162.325 56.7042 162.746 56.5307 163.127 56.2573C163.211 56.1972 163.261 56.117 163.28 56.0168C163.257 55.8773 163.237 55.737 163.223 55.5959C163.204 54.0595 163.197 52.5227 163.204 50.9863C164.032 50.9863 164.861 50.9863 165.689 50.9863C165.683 52.4963 165.689 54.0058 165.708 55.5158C165.804 56.1643 166.155 56.5716 166.76 56.7383C166.924 56.7748 167.09 56.8016 167.257 56.8185C168.392 56.8453 169.526 56.8453 170.66 56.8185C171.205 56.7884 171.485 56.4878 171.502 55.9166C171.54 50.9731 171.552 46.0295 171.54 41.0856C172.355 41.0856 173.171 41.0856 173.987 41.0856C173.994 46.1763 173.987 51.2669 173.968 56.3575C173.904 57.6478 173.363 58.6431 172.343 59.3438C171.866 59.6175 171.356 59.7779 170.813 59.8248C169.487 59.8616 168.161 59.8484 166.836 59.7847C165.879 59.6468 165.056 59.2259 164.37 58.522C163.613 59.3349 162.689 59.769 161.598 59.8248C160.744 59.8516 159.89 59.8516 159.036 59.8248C158.018 59.7462 157.24 59.2584 156.703 58.3617C156.051 59.2251 155.197 59.7125 154.141 59.8248C153.326 59.8516 152.51 59.8516 151.694 59.8248C150.719 59.7586 149.974 59.2977 149.457 58.4419C148.815 59.1894 148.018 59.6368 147.067 59.7847C145.105 59.8432 143.142 59.8632 141.178 59.8448C141.178 58.8559 141.178 57.8675 141.178 56.8786C143.039 56.8854 144.9 56.8786 146.761 56.8586C147.675 56.7676 147.975 56.2665 147.66 55.3554C147.443 54.4066 147.227 53.4583 147.01 52.5095C146.837 51.7539 146.385 51.3194 145.652 51.2068C144.595 51.1867 143.537 51.1799 142.478 51.1867C142.478 50.1979 142.478 49.2094 142.478 48.2205C143.652 48.2029 144.825 48.2229 145.996 48.2807C147.547 48.5829 148.599 49.5116 149.151 51.0665C149.493 52.3123 149.799 53.5685 150.069 54.8343C150.165 55.3638 150.216 55.8982 150.222 56.4377C150.592 56.7103 151.006 56.8506 151.465 56.8586C152.344 56.8854 153.224 56.8854 154.103 56.8586C154.508 56.8205 154.757 56.6 154.849 56.1972C154.868 51.1599 154.874 46.123 154.868 41.0856Z" fill="white"/>
<path opacity="0.991" fill-rule="evenodd" clip-rule="evenodd" d="M85.0441 41.206C85.8597 41.206 86.6757 41.206 87.4914 41.206C87.4914 47.419 87.4914 53.632 87.4914 59.8449C86.6757 59.8449 85.8597 59.8449 85.0441 59.8449C85.0441 53.632 85.0441 47.419 85.0441 41.206Z" fill="white"/>
<path opacity="0.99" fill-rule="evenodd" clip-rule="evenodd" d="M129.477 41.206C130.293 41.206 131.109 41.206 131.924 41.206C131.918 46.0962 131.924 50.9864 131.944 55.8766C131.942 56.1175 131.993 56.3448 132.097 56.5581C132.232 56.7212 132.404 56.8082 132.613 56.8186C133.977 56.8455 135.34 56.8455 136.704 56.8186C136.95 56.8274 137.109 56.714 137.182 56.4779C137.201 53.8857 137.208 51.2939 137.201 48.7016C138.017 48.7016 138.833 48.7016 139.649 48.7016C139.655 51.3873 139.649 54.0729 139.63 56.7585C139.546 57.971 139.004 58.8729 138.004 59.4641C137.579 59.6657 137.133 59.7728 136.666 59.7848C135.199 59.8225 133.734 59.8088 132.269 59.7447C130.815 59.4369 129.929 58.5218 129.611 56.999C129.552 56.7216 129.514 56.441 129.496 56.1572C129.477 51.1736 129.471 46.1896 129.477 41.206Z" fill="white"/>
<path opacity="0.991" fill-rule="evenodd" clip-rule="evenodd" d="M177.314 41.206C178.129 41.206 178.945 41.206 179.761 41.206C179.761 47.419 179.761 53.632 179.761 59.8449C178.945 59.8449 178.129 59.8449 177.314 59.8449C177.314 53.632 177.314 47.419 177.314 41.206Z" fill="white"/>
<path opacity="0.991" fill-rule="evenodd" clip-rule="evenodd" d="M206.528 41.206C207.344 41.206 208.16 41.206 208.975 41.206C208.975 47.419 208.975 53.632 208.975 59.8449C208.16 59.8449 207.344 59.8449 206.528 59.8449C206.528 53.632 206.528 47.419 206.528 41.206Z" fill="white"/>
<path opacity="0.987" fill-rule="evenodd" clip-rule="evenodd" d="M15.259 41.246C16.0748 41.246 16.8905 41.246 17.7063 41.246C17.6999 46.2433 17.7063 51.2401 17.7254 56.2373C17.7427 56.5211 17.8766 56.7151 18.1269 56.8186C26.6655 56.8851 35.2055 56.8983 43.7467 56.8586C43.9536 56.8606 44.0874 56.7604 44.1482 56.558C44.1739 56.0101 44.1739 55.4625 44.1482 54.9146C43.9842 53.0727 43.0221 52.077 41.2612 51.9283C36.2392 51.9083 31.2173 51.9015 26.1952 51.9083C26.1889 50.719 26.1952 49.5297 26.2144 48.3408C26.3011 46.8293 26.9065 45.6067 28.0307 44.6732C29.4381 43.6587 30.8401 42.6365 32.2369 41.6068C32.6496 42.3315 33.0575 43.0598 33.4606 43.7914C32.1289 44.7898 30.7906 45.7787 29.4455 46.7575C28.6183 47.3636 28.2614 48.1985 28.3748 49.2628C32.6066 49.256 36.8383 49.2628 41.07 49.2828C42.4332 49.3181 43.6569 49.759 44.7409 50.6056C45.8709 51.6979 46.4888 53.0539 46.5955 54.6741C46.6307 55.3018 46.6563 55.9295 46.672 56.558C46.9462 56.7308 47.2456 56.8174 47.5706 56.8186C48.6294 56.855 49.6875 56.8418 50.7444 56.7785C51.2568 56.7244 51.7221 56.544 52.1401 56.2373C52.085 54.4905 52.0659 52.74 52.0827 50.9864C52.8983 50.9864 53.7144 50.9864 54.53 50.9864C54.5235 52.4562 54.53 53.9257 54.5491 55.3956C54.6222 56.1936 55.0363 56.6546 55.7919 56.7785C56.4025 56.839 57.0144 56.8526 57.6273 56.8186C57.8904 56.8061 58.1451 56.7528 58.3921 56.6582C58.5133 56.5849 58.6089 56.4847 58.6789 56.3576C58.698 54.4067 58.7045 52.4562 58.698 50.5054C59.5136 50.5054 60.3296 50.5054 61.1453 50.5054C61.1388 52.3893 61.1453 54.2732 61.1644 56.1572C61.1957 56.3901 61.3043 56.5704 61.4894 56.6983C61.6493 56.7809 61.8148 56.8478 61.9865 56.8987C62.7777 57.0967 63.5746 57.2639 64.3764 57.3998C65.0012 57.3813 65.3137 57.0406 65.3133 56.3776C65.2754 54.0067 65.2628 51.6349 65.275 49.2628C66.0907 49.2628 66.9067 49.2628 67.7223 49.2628C67.7288 51.7612 67.7223 54.26 67.7032 56.7584C67.6447 58.1313 67.0776 59.1935 66.0016 59.9451C65.3396 60.2974 64.6387 60.4309 63.8984 60.3459C62.9853 60.1864 62.0806 59.986 61.1835 59.7447C60.579 59.5651 60.0627 59.2376 59.6348 58.7626C59.0945 59.41 58.4124 59.7639 57.5891 59.8248C56.9509 59.8581 56.3134 59.8449 55.6772 59.7847C54.6837 59.6549 53.8363 59.2208 53.1343 58.482C52.3978 59.3122 51.4866 59.7599 50.4002 59.8248C49.4825 59.8517 48.5648 59.8517 47.6471 59.8248C46.9186 59.7487 46.3324 59.408 45.8881 58.8027C45.3145 59.424 44.6136 59.7647 43.785 59.8248C35.1806 59.8645 26.5769 59.8513 17.974 59.7847C16.9052 59.5855 16.134 58.9779 15.6605 57.9609C15.4997 57.5886 15.385 57.2014 15.3164 56.7985C15.2595 51.6153 15.2404 46.4313 15.259 41.246Z" fill="white"/>
<path opacity="0.981" fill-rule="evenodd" clip-rule="evenodd" d="M190.048 43.2101C190.889 43.2101 191.73 43.2101 192.571 43.2101C192.571 44.1854 192.571 45.161 192.571 46.1363C191.73 46.1363 190.889 46.1363 190.048 46.1363C190.048 45.161 190.048 44.1854 190.048 43.2101Z" fill="white"/>
<path opacity="0.981" fill-rule="evenodd" clip-rule="evenodd" d="M193.336 43.2101C194.177 43.2101 195.018 43.2101 195.859 43.2101C195.859 44.1854 195.859 45.161 195.859 46.1363C195.018 46.1363 194.177 46.1363 193.336 46.1363C193.336 45.161 193.336 44.1854 193.336 43.2101Z" fill="white"/>
<path opacity="0.979" fill-rule="evenodd" clip-rule="evenodd" d="M212.876 43.7714C213.755 43.7714 214.635 43.7714 215.514 43.7714C215.514 44.7603 215.514 45.7488 215.514 46.7376C214.635 46.7376 213.755 46.7376 212.876 46.7376C212.876 45.7488 212.876 44.7603 212.876 43.7714Z" fill="white"/>
<path opacity="0.984" fill-rule="evenodd" clip-rule="evenodd" d="M73.4961 44.0519C73.5344 44.0519 73.5726 44.0519 73.6108 44.0519C74.3932 47.9389 75.1706 51.827 75.9434 55.7163C75.0895 55.7163 74.2353 55.7163 73.3814 55.7163C72.6449 52.0306 71.9184 48.3429 71.2018 44.6532C71.9765 44.4768 72.7413 44.2764 73.4961 44.0519Z" fill="white"/>
<path opacity="0.983" fill-rule="evenodd" clip-rule="evenodd" d="M114.526 46.978C115.355 46.978 116.183 46.978 117.012 46.978C117.012 47.9668 117.012 48.9553 117.012 49.9442C116.183 49.9442 115.355 49.9442 114.526 49.9442C114.526 48.9553 114.526 47.9668 114.526 46.978Z" fill="white"/>
<path opacity="0.968" fill-rule="evenodd" clip-rule="evenodd" d="M117.738 46.978C118.58 46.978 119.421 46.978 120.262 46.978C120.262 47.9668 120.262 48.9553 120.262 49.9442C119.421 49.9442 118.58 49.9442 117.738 49.9442C117.738 48.9553 117.738 47.9668 117.738 46.978Z" fill="white"/>
<path opacity="0.987" fill-rule="evenodd" clip-rule="evenodd" d="M124.2 48.7016C125.016 48.7016 125.832 48.7016 126.648 48.7016C126.648 52.4025 126.648 56.1039 126.648 59.8048C121.893 59.8116 117.139 59.8048 112.385 59.7847C109.297 59.5948 107.57 57.8912 107.203 54.6741C107.184 53.191 107.178 51.7079 107.184 50.2248C108 50.2248 108.816 50.2248 109.632 50.2248C109.625 51.6009 109.632 52.9773 109.651 54.3534C109.744 55.6 110.363 56.3816 111.505 56.6983C111.77 56.76 112.037 56.8001 112.308 56.8186C116.272 56.8386 120.236 56.8454 124.2 56.8386C124.2 54.1261 124.2 51.4141 124.2 48.7016Z" fill="white"/>
<path opacity="0.976" fill-rule="evenodd" clip-rule="evenodd" d="M5.04947 48.7416C5.92896 48.7416 6.80844 48.7416 7.68793 48.7416C7.68793 49.7305 7.68793 50.719 7.68793 51.7078C6.80844 51.7078 5.92896 51.7078 5.04947 51.7078C5.04947 50.719 5.04947 49.7305 5.04947 48.7416Z" fill="white"/>
<path opacity="0.986" fill-rule="evenodd" clip-rule="evenodd" d="M189.512 48.7418C190.991 48.7349 192.469 48.7418 193.948 48.7618C195.575 48.8528 196.741 49.6609 197.446 51.1869C197.576 51.5148 197.691 51.8486 197.79 52.189C197.923 52.862 198.063 53.5297 198.211 54.1931C198.467 55.659 198.187 56.995 197.37 58.2015C196.62 59.0789 195.683 59.58 194.559 59.7047C193.629 59.7315 192.698 59.7315 191.768 59.7047C189.554 59.386 188.394 58.0564 188.288 55.7163C188.312 55.3948 188.344 55.0742 188.384 54.7543C188.756 52.7485 189.132 50.7443 189.512 48.7418ZM191.462 51.3873C192.303 51.3805 193.145 51.3873 193.986 51.4073C194.532 51.4891 194.92 51.7897 195.152 52.3092C195.425 53.2592 195.61 54.2276 195.707 55.2153C195.73 56.326 195.22 56.9541 194.177 57.0992C193.438 57.1261 192.698 57.1261 191.959 57.0992C191.007 57.0371 190.581 56.5092 190.678 55.5159C190.932 54.1374 191.194 52.7613 191.462 51.3873Z" fill="white"/>
<path opacity="0.986" fill-rule="evenodd" clip-rule="evenodd" d="M94.2596 48.7818C95.6309 48.6664 96.8545 49.0471 97.9306 49.9242C98.9033 50.897 99.4196 52.0927 99.4792 53.5117C99.5048 55.8233 99.5048 58.1345 99.4792 60.4462C99.3786 61.9473 98.6712 62.9959 97.357 63.5927C96.9746 63.7663 96.5792 63.9002 96.1716 63.9936C94.4791 64.392 92.7905 64.7996 91.105 65.2161C90.9138 64.3483 90.7291 63.4801 90.5505 62.6107C92.4953 62.1698 94.4325 61.6952 96.3628 61.1877C96.6694 61.0534 96.8671 60.8197 96.9555 60.4862C96.9746 60.2594 96.9811 60.0325 96.9746 59.8048C95.9796 59.82 94.9854 59.8 93.992 59.7447C91.9829 59.4557 90.6767 58.3001 90.0725 56.2775C89.9697 55.8834 89.9058 55.4826 89.8813 55.0749C89.811 54.1153 89.8748 53.1665 90.0725 52.229C90.7341 50.0993 92.1298 48.9501 94.2596 48.7818ZM94.4126 51.5476C95.1085 51.4834 95.746 51.6506 96.3245 52.0486C96.7035 52.4086 96.9264 52.8563 96.9937 53.3914C97.0472 54.6064 97.0664 55.8221 97.0511 57.039C96.235 57.0459 95.4194 57.039 94.6038 57.019C93.3905 56.9825 92.6578 56.3476 92.4051 55.115C92.3795 54.5539 92.3795 53.9927 92.4051 53.4315C92.6215 52.2727 93.2907 51.6446 94.4126 51.5476Z" fill="white"/>
<path opacity="0.986" fill-rule="evenodd" clip-rule="evenodd" d="M221.785 48.7817C223.135 48.6707 224.346 49.0382 225.418 49.884C226.418 50.8609 226.946 52.0702 227.005 53.5116C227.031 55.8232 227.031 58.1344 227.005 60.4461C226.904 61.9472 226.197 62.9958 224.883 63.5926C224.5 63.7662 224.105 63.9001 223.697 63.9935C222.005 64.3919 220.316 64.7996 218.631 65.216C218.439 64.3482 218.255 63.48 218.076 62.6106C220.021 62.1697 221.958 61.6951 223.888 61.1876C224.195 61.0533 224.393 60.8196 224.481 60.4861C224.5 60.2593 224.507 60.0324 224.5 59.8047C223.505 59.82 222.511 59.7999 221.518 59.7446C219.509 59.4556 218.202 58.3 217.598 56.2774C217.495 55.8833 217.432 55.4825 217.407 55.0748C217.338 54.1152 217.402 53.1669 217.598 52.2289C218.26 50.0993 219.655 48.9501 221.785 48.7817ZM221.9 51.5475C222.596 51.4833 223.233 51.6505 223.812 52.0485C224.202 52.4181 224.425 52.8791 224.481 53.4314C224.5 54.6339 224.507 55.8364 224.5 57.039C223.697 57.0458 222.894 57.039 222.091 57.0189C220.887 56.9985 220.154 56.3772 219.893 55.155C219.817 54.567 219.817 53.979 219.893 53.3913C220.115 52.2425 220.784 51.628 221.9 51.5475Z" fill="white"/>
<path opacity="0.987" fill-rule="evenodd" clip-rule="evenodd" d="M201.366 49.4633C202.182 49.4633 202.998 49.4633 203.813 49.4633C203.82 53.1643 203.813 56.8656 203.794 60.5665C203.619 62.2781 202.784 63.4874 201.29 64.1941C200.467 64.5348 199.645 64.8755 198.823 65.2162C198.526 64.3873 198.213 63.5656 197.886 62.7511C198.768 62.3851 199.647 62.0111 200.525 61.6287C200.94 61.3662 201.202 60.9854 201.309 60.4863C201.366 56.8131 201.385 53.139 201.366 49.4633Z" fill="white"/>
<path opacity="0.987" fill-rule="evenodd" clip-rule="evenodd" d="M213.143 49.4633C213.959 49.4633 214.775 49.4633 215.591 49.4633C215.597 53.1643 215.591 56.8656 215.572 60.5665C215.377 62.2661 214.542 63.475 213.067 64.1941C212.244 64.5348 211.422 64.8755 210.601 65.2162C210.303 64.3873 209.991 63.5656 209.664 62.7511C210.545 62.3851 211.425 62.0111 212.302 61.6287C212.717 61.3662 212.979 60.9854 213.086 60.4863C213.143 56.8131 213.162 53.139 213.143 49.4633Z" fill="white"/>
<path opacity="0.987" fill-rule="evenodd" clip-rule="evenodd" d="M9.94391 49.9443C10.7597 49.9443 11.5754 49.9443 12.3912 49.9443C12.3976 53.3915 12.3912 56.8387 12.3721 60.2859C12.109 62.6993 10.828 64.0421 8.52908 64.3143C7.44567 64.3411 6.36222 64.3411 5.27881 64.3143C3.91556 64.2405 2.71742 63.7459 1.68438 62.8312C0.727302 61.8195 0.198333 60.5969 0.0974831 59.1635C0.0667736 58.5747 0.0795224 57.9867 0.135722 57.3998C0.331575 56.0093 0.529139 54.62 0.728419 53.2311C1.51868 53.2311 2.30894 53.2311 3.09921 53.2311C2.89992 54.6469 2.70235 56.063 2.50651 57.48C2.41903 58.1378 2.43177 58.7924 2.54475 59.4441C2.76985 60.2282 3.24784 60.7693 3.97869 61.0675C4.29007 61.1793 4.60871 61.2595 4.93466 61.308C6.13183 61.3721 7.33 61.3854 8.52908 61.3481C9.36704 61.298 9.83229 60.837 9.92479 59.9652C9.94391 56.625 9.95029 53.2844 9.94391 49.9443Z" fill="white"/>
<path fill-rule="evenodd" clip-rule="evenodd" d="M304.674 102.749C275.282 102.749 251.382 77.6853 251.382 46.8626L251.777 39.1223H260.125V27.4197H261.047V25.5307H265.045L266.188 27.5579H268.253V42.4855H269.922V44.5588H270.537V32.5799H277.259V35.6668H279.5V41.4259H283.234V35.8511H288.242L290.044 38.2468V44.6049H300.324V46.2175H288.506V38.7997L287.496 37.4636H284.772V44.9735H282.707V43.0384H277.962V37.2793H275.721V34.1924H272.075V46.2175H268.384V44.0981H266.715V29.1705H265.309L264.167 27.1433H262.585V29.0322H261.663V40.7348H253.271L252.964 46.8625C252.964 76.7178 276.161 101.044 304.674 101.044C333.143 101.044 356.296 76.8101 356.384 47.0469H351.112V37.5098H347.993V32.6259H344.346V30.5526H339.909V32.027L339.03 33.0867V41.9326H334.505V35.3442L333.363 34.0081H330.858V31.7966H328.003V46.2175H323.39V40.873H319.304V46.2175H308.452V44.6049H317.766V39.2605H324.883V44.6049H326.421V30.1841H332.352V32.3956H334.022L335.999 34.7453V40.3201H337.449V32.4877L338.327 31.4281V28.9401H345.884V31.0595H349.53V35.9432H352.65V45.4803H357.922V46.9086C357.922 77.7313 334.022 102.749 304.674 102.749Z" fill="white"/>
<path opacity="0.977" fill-rule="evenodd" clip-rule="evenodd" d="M73.8023 60.9272C74.312 60.9272 74.8221 60.9272 75.3318 60.9272C75.3318 61.4351 75.3318 61.9426 75.3318 62.4504C74.7315 62.4368 74.1323 62.4568 73.5346 62.5106C73.2685 62.5799 73.0838 62.7467 72.9802 63.0116C72.9044 63.2465 72.8792 63.487 72.9037 63.7331C73.8061 63.8125 74.7177 63.8393 75.6377 63.8133C75.6377 64.3211 75.6377 64.8286 75.6377 65.3365C74.0573 65.3365 72.4765 65.3365 70.8961 65.3365C70.8961 64.8286 70.8961 64.3211 70.8961 63.8133C71.113 63.8133 71.3294 63.8133 71.5462 63.8133C71.5309 63.0477 71.7286 62.353 72.1389 61.7289C72.5897 61.2179 73.1442 60.9505 73.8023 60.9272Z" fill="white"/>
<path opacity="0.981" fill-rule="evenodd" clip-rule="evenodd" d="M135.175 61.9695C136.016 61.9695 136.857 61.9695 137.699 61.9695C137.699 62.9447 137.699 63.9203 137.699 64.8956C136.857 64.8956 136.016 64.8956 135.175 64.8956C135.175 63.9203 135.175 62.9447 135.175 61.9695Z" fill="white"/>
<path opacity="0.981" fill-rule="evenodd" clip-rule="evenodd" d="M138.425 61.9695C139.267 61.9695 140.108 61.9695 140.949 61.9695C140.949 62.9447 140.949 63.9203 140.949 64.8956C140.108 64.8956 139.267 64.8956 138.425 64.8956C138.425 63.9203 138.425 62.9447 138.425 61.9695Z" fill="white"/>
<path opacity="0.976" fill-rule="evenodd" clip-rule="evenodd" d="M163.051 62.0496C163.93 62.0496 164.81 62.0496 165.689 62.0496C165.689 63.0384 165.689 64.0269 165.689 65.0157C164.81 65.0157 163.93 65.0157 163.051 65.0157C163.051 64.0269 163.051 63.0384 163.051 62.0496Z" fill="white"/>
<path opacity="0.963" fill-rule="evenodd" clip-rule="evenodd" d="M12.2763 75.1568C12.6399 75.1015 12.9713 75.1817 13.2705 75.3973C13.5726 75.7781 13.6172 76.1922 13.4043 76.6399C13.2002 76.9137 12.9325 77.034 12.6013 77.0007C11.8564 77.0023 11.525 76.6151 11.6071 75.8383C11.7253 75.4939 11.9483 75.2667 12.2763 75.1568Z" fill="white"/>
<path opacity="0.964" fill-rule="evenodd" clip-rule="evenodd" d="M23.1359 75.1571C23.6511 75.0637 24.0526 75.2372 24.3404 75.6782C24.531 76.2958 24.3462 76.7304 23.7859 76.9809C23.3044 77.1019 22.9029 76.9749 22.5814 76.6001C22.2927 75.9102 22.4775 75.4292 23.1359 75.1571Z" fill="white"/>
<path opacity="0.963" fill-rule="evenodd" clip-rule="evenodd" d="M94.7568 75.1569C95.0818 75.1172 95.3878 75.1773 95.6745 75.3372C96.0493 75.7132 96.1196 76.1477 95.8848 76.64C95.6806 76.9137 95.413 77.034 95.0818 77.0007C94.4574 77.032 94.1198 76.7245 94.0685 76.0788C94.072 75.5813 94.3014 75.2739 94.7568 75.1569Z" fill="white"/>
<path opacity="0.964" fill-rule="evenodd" clip-rule="evenodd" d="M105.043 75.1571C105.465 75.0953 105.829 75.2156 106.133 75.5178C106.365 75.9279 106.352 76.3287 106.095 76.7203C105.881 76.9332 105.626 77.0266 105.33 77.0009C104.497 76.938 104.191 76.4834 104.412 75.6381C104.562 75.3831 104.773 75.2228 105.043 75.1571Z" fill="white"/>
<path opacity="0.963" fill-rule="evenodd" clip-rule="evenodd" d="M126.877 75.157C127.917 75.0769 128.306 75.5579 128.043 76.6C127.735 76.9824 127.346 77.1091 126.877 76.9808C126.289 76.7708 126.079 76.3499 126.246 75.7182C126.383 75.4332 126.594 75.2464 126.877 75.157Z" fill="white"/>
<path opacity="0.963" fill-rule="evenodd" clip-rule="evenodd" d="M135.213 75.1571C135.635 75.0953 135.999 75.2156 136.303 75.5178C136.535 75.9279 136.523 76.3287 136.265 76.7203C136.051 76.9332 135.796 77.0266 135.5 77.0009C134.667 76.9388 134.361 76.4846 134.582 75.6381C134.733 75.3831 134.943 75.2228 135.213 75.1571Z" fill="white"/>
<path opacity="0.965" fill-rule="evenodd" clip-rule="evenodd" d="M210.467 75.1569C210.8 75.1172 211.105 75.1906 211.385 75.3774C211.735 75.7726 211.78 76.2067 211.518 76.6801C211.155 77.004 210.741 77.091 210.276 76.9407C209.812 76.7102 209.64 76.3294 209.759 75.7983C209.799 75.6291 209.881 75.4888 210.008 75.3774C210.16 75.2908 210.313 75.2171 210.467 75.1569Z" fill="white"/>
<path opacity="0.99" fill-rule="evenodd" clip-rule="evenodd" d="M122.786 75.3174C123.372 75.3174 123.959 75.3174 124.545 75.3174C124.538 77.9497 124.545 80.5816 124.564 83.2139C124.583 83.2339 124.602 83.254 124.621 83.274C124.812 83.294 125.003 83.3009 125.195 83.294C125.195 83.8284 125.195 84.3631 125.195 84.8974C124.586 84.9419 124.012 84.8152 123.474 84.5166C123.096 84.1587 122.873 83.7109 122.805 83.1738C122.786 80.5551 122.779 77.9361 122.786 75.3174Z" fill="white"/>
<path opacity="0.984" fill-rule="evenodd" clip-rule="evenodd" d="M173.452 75.3174C174.038 75.3174 174.624 75.3174 175.211 75.3174C175.211 78.5241 175.211 81.7308 175.211 84.9375C174.624 84.9375 174.038 84.9375 173.452 84.9375C173.458 84.6833 173.452 84.4292 173.433 84.1759C173.023 84.7447 172.475 85.0385 171.788 85.0577C170.293 84.907 169.362 84.0653 168.997 82.5325C168.831 81.5396 168.933 80.5776 169.303 79.6464C170 78.2427 171.077 77.7685 172.534 78.2235C172.917 78.3974 173.216 78.6712 173.433 79.0452C173.452 77.8026 173.458 76.56 173.452 75.3174ZM171.769 79.5262C172.009 79.5787 172.277 79.6388 172.572 79.7066C172.963 79.929 173.211 80.2697 173.318 80.7287C173.423 81.285 173.461 81.8462 173.433 82.4122C173.233 83.1546 172.768 83.5217 172.037 83.5145C172.054 83.4981 172.067 83.478 172.075 83.4544C171.495 83.4139 171.106 83.1069 170.909 82.5325C170.622 81.6394 170.699 80.784 171.138 79.9671C171.316 79.7599 171.526 79.6127 171.769 79.5262Z" fill="white"/>
<path opacity="0.97" fill-rule="evenodd" clip-rule="evenodd" d="M63.1718 75.5579C63.4268 75.5394 63.6754 75.5663 63.9174 75.638C63.9365 76.1323 63.943 76.6265 63.9365 77.1211C63.7037 77.1019 63.4742 77.0618 63.2482 77.0009C63.0697 77.057 62.8915 77.1171 62.7129 77.1813C62.5974 77.2959 62.5274 77.4362 62.5026 77.6021C62.4835 77.8022 62.477 78.0026 62.4835 78.2034C62.9806 78.2034 63.4777 78.2034 63.9748 78.2034C63.9748 78.6712 63.9748 79.1385 63.9748 79.6063C63.4777 79.6063 62.9806 79.6063 62.4835 79.6063C62.4835 81.3832 62.4835 83.1606 62.4835 84.9375C61.8843 84.9375 61.2855 84.9375 60.6863 84.9375C60.6863 83.1606 60.6863 81.3832 60.6863 79.6063C60.3547 79.6063 60.0236 79.6063 59.692 79.6063C59.692 79.1385 59.692 78.6712 59.692 78.2034C60.0236 78.2034 60.3547 78.2034 60.6863 78.2034C60.7184 76.4994 61.547 75.6176 63.1718 75.5579Z" fill="white"/>
<path opacity="0.979" fill-rule="evenodd" clip-rule="evenodd" d="M0.53714 75.718C1.37858 75.7208 2.21982 75.7345 3.06088 75.7581C3.69935 78.0742 4.35579 80.3858 5.03017 82.6926C5.70473 80.3986 6.36756 78.1006 7.01857 75.7982C7.90158 75.7585 8.78741 75.7449 9.67615 75.7581C9.81442 78.8057 9.96738 81.852 10.135 84.8972C9.53616 84.9385 8.93708 84.9786 8.3378 85.0174C8.22519 82.6521 8.10409 80.2872 7.97454 77.9226C7.30399 80.2319 6.6412 82.5431 5.98613 84.8571C5.38365 84.8968 4.77821 84.91 4.1698 84.8972C3.52533 82.5699 2.8689 80.2451 2.20052 77.9226C2.07818 80.2603 1.96984 82.5984 1.87549 84.9373C1.27563 84.9273 0.676558 84.9008 0.0782776 84.8571C0.240589 81.8116 0.393543 78.7652 0.53714 75.718Z" fill="white"/>
<path opacity="0.979" fill-rule="evenodd" clip-rule="evenodd" d="M67.9898 75.718C68.8184 75.7204 69.647 75.7337 70.4753 75.7581C71.1139 78.0742 71.77 80.3858 72.4446 82.6926C73.1191 80.3986 73.7818 78.1006 74.433 75.7982C75.3159 75.7585 76.2019 75.7449 77.0906 75.7581C77.2263 78.8061 77.3792 81.8524 77.5494 84.8972C76.9506 84.9385 76.3514 84.9786 75.7522 85.0174C75.6398 82.6521 75.5186 80.2872 75.3889 77.9226C74.7182 80.2319 74.0556 82.5431 73.4005 84.8571C72.7979 84.8968 72.1926 84.91 71.5842 84.8972C70.9602 82.6208 70.3166 80.3493 69.6532 78.083C69.5358 80.3673 69.4275 82.6521 69.3281 84.9373C68.7259 84.9405 68.1267 84.9004 67.5309 84.817C67.7053 81.7863 67.8582 78.7532 67.9898 75.718Z" fill="white"/>
<path opacity="0.981" fill-rule="evenodd" clip-rule="evenodd" d="M32.8104 75.8384C33.3967 75.8384 33.9831 75.8384 34.5694 75.8384C34.5694 76.6268 34.5694 77.4149 34.5694 78.2033C35.0665 78.2033 35.5636 78.2033 36.0607 78.2033C36.0607 78.6711 36.0607 79.1385 36.0607 79.6062C35.5636 79.6062 35.0665 79.6062 34.5694 79.6062C34.563 80.8088 34.5694 82.0113 34.5885 83.2138C34.6204 83.2471 34.6523 83.2807 34.6841 83.314C35.1428 83.334 35.6016 83.3409 36.0607 83.334C36.0607 83.8684 36.0607 84.4031 36.0607 84.9374C35.5379 84.9442 35.0154 84.9374 34.4929 84.9173C33.8874 84.8288 33.4094 84.5281 33.059 84.0155C32.929 83.7509 32.8525 83.4703 32.8295 83.1737C32.8104 81.9848 32.804 80.7955 32.8104 79.6062C32.4663 79.6062 32.1221 79.6062 31.778 79.6062C31.778 79.1385 31.778 78.6711 31.778 78.2033C32.1221 78.2033 32.4663 78.2033 32.8104 78.2033C32.8104 77.4149 32.8104 76.6268 32.8104 75.8384Z" fill="white"/>
<path opacity="0.981" fill-rule="evenodd" clip-rule="evenodd" d="M130.166 75.8384C130.752 75.8384 131.339 75.8384 131.925 75.8384C131.925 76.6268 131.925 77.4149 131.925 78.2033C132.422 78.2033 132.919 78.2033 133.416 78.2033C133.416 78.6711 133.416 79.1385 133.416 79.6062C132.919 79.6062 132.422 79.6062 131.925 79.6062C131.918 80.8088 131.925 82.0113 131.944 83.2138C131.976 83.2471 132.008 83.2807 132.04 83.314C132.498 83.334 132.957 83.3409 133.416 83.334C133.416 83.8684 133.416 84.4031 133.416 84.9374C132.893 84.9442 132.371 84.9374 131.848 84.9173C131.243 84.8288 130.765 84.5281 130.414 84.0155C130.284 83.7509 130.208 83.4703 130.185 83.1737C130.166 81.9848 130.159 80.7955 130.166 79.6062C129.822 79.6062 129.478 79.6062 129.133 79.6062C129.133 79.1385 129.133 78.6711 129.133 78.2033C129.478 78.2033 129.822 78.2033 130.166 78.2033C130.166 77.4149 130.166 76.6268 130.166 75.8384Z" fill="white"/>
<path opacity="0.978" fill-rule="evenodd" clip-rule="evenodd" d="M179.455 75.8384C180.054 75.8384 180.653 75.8384 181.252 75.8384C181.252 77.0008 181.252 78.1632 181.252 79.3257C182.476 79.3257 183.7 79.3257 184.923 79.3257C184.923 78.1632 184.923 77.0008 184.923 75.8384C185.523 75.8384 186.121 75.8384 186.721 75.8384C186.721 78.8715 186.721 81.9043 186.721 84.9374C186.121 84.9374 185.523 84.9374 184.923 84.9374C184.923 83.6014 184.923 82.265 184.923 80.929C183.7 80.929 182.476 80.929 181.252 80.929C181.252 82.265 181.252 83.6014 181.252 84.9374C180.653 84.9374 180.054 84.9374 179.455 84.9374C179.455 81.9043 179.455 78.8715 179.455 75.8384Z" fill="white"/>
<path opacity="0.976" fill-rule="evenodd" clip-rule="evenodd" d="M18.8154 77.9629C19.2599 78.0314 19.6805 78.185 20.0772 78.4239C20.7022 78.985 21.0272 79.6997 21.0523 80.5683C21.0714 81.9981 21.0778 83.4275 21.0714 84.8573C20.4851 84.8573 19.8988 84.8573 19.3125 84.8573C19.3298 83.4263 19.3107 81.9969 19.2551 80.5683C19.1348 79.7133 18.6824 79.4263 17.8976 79.7065C17.2052 79.9607 16.8292 80.4749 16.7696 81.2498C16.7505 82.4787 16.7441 83.7081 16.7505 84.9375C16.1514 84.9375 15.5524 84.9375 14.9533 84.9375C14.9533 82.6659 14.9533 80.3948 14.9533 78.1232C15.5524 78.1232 16.1514 78.1232 16.7505 78.1232C16.7441 78.5245 16.7505 78.9253 16.7696 79.3257C17.0706 78.7293 17.5231 78.3216 18.1271 78.1032C18.3419 78.0611 18.5586 78.0342 18.7771 78.023C18.7984 78.0078 18.8111 77.9877 18.8154 77.9629Z" fill="white"/>
<path opacity="0.989" fill-rule="evenodd" clip-rule="evenodd" d="M41.1845 77.9629C41.2483 77.9629 41.3118 77.9629 41.3757 77.9629C41.3757 78.5509 41.3757 79.1385 41.3757 79.7266C40.8774 79.7314 40.3933 79.818 39.9226 79.9871C39.4454 80.22 39.1334 80.6008 38.9858 81.1295C38.9667 82.3985 38.9601 83.668 38.9667 84.9375C38.3804 84.9375 37.7939 84.9375 37.2077 84.9375C37.2077 82.6659 37.2077 80.3948 37.2077 78.1232C37.7939 78.1232 38.3804 78.1232 38.9667 78.1232C38.9601 78.5377 38.9667 78.9518 38.9858 79.3658C39.4878 78.5044 40.2209 78.037 41.1845 77.9629Z" fill="white"/>
<path opacity="0.978" fill-rule="evenodd" clip-rule="evenodd" d="M55.6772 77.9629C57.1505 77.9829 58.2403 78.6644 58.9466 80.0072C59.5202 81.5472 59.2586 82.9032 58.1627 84.0757C56.9517 85.0946 55.639 85.2682 54.2241 84.5967C52.6036 83.5361 52.0874 82.0462 52.6755 80.1274C53.2854 78.8155 54.2857 78.094 55.6772 77.9629ZM55.6007 79.6464C56.3513 79.5987 56.9058 79.9194 57.2641 80.6084C57.632 81.544 57.4599 82.3525 56.7479 83.0335C55.8772 83.5385 55.1315 83.3846 54.5109 82.5725C54.0192 81.5877 54.153 80.7122 54.9124 79.947C55.1354 79.8184 55.3648 79.7182 55.6007 79.6464Z" fill="white"/>
<path opacity="0.977" fill-rule="evenodd" clip-rule="evenodd" d="M90.3977 77.9629C91.6041 78.0984 92.3372 78.793 92.5965 80.0472C92.6305 80.2465 92.6557 80.4469 92.6729 80.6485C92.692 82.0514 92.6985 83.4544 92.692 84.8573C92.1058 84.8573 91.5193 84.8573 90.9331 84.8573C90.9499 83.4399 90.9308 82.0238 90.8757 80.6084C90.7549 79.6997 90.2769 79.3991 89.4418 79.7065C88.89 79.9242 88.5397 80.3314 88.3902 80.9291C88.3711 82.2651 88.3646 83.6015 88.3711 84.9375C87.7719 84.9375 87.1731 84.9375 86.5739 84.9375C86.5739 82.6659 86.5739 80.3948 86.5739 78.1232C87.1731 78.1232 87.7719 78.1232 88.3711 78.1232C88.3646 78.4844 88.3711 78.8451 88.3902 79.2055C88.8472 78.4018 89.5163 77.9877 90.3977 77.9629Z" fill="white"/>
<path opacity="0.98" fill-rule="evenodd" clip-rule="evenodd" d="M111.161 77.9629C112.667 78.1052 113.604 78.9469 113.972 80.4882C114.188 81.7223 113.984 82.8711 113.36 83.9354C112.602 84.9038 111.653 85.2044 110.511 84.8372C110.092 84.6645 109.767 84.3771 109.536 83.9754C109.517 85.2313 109.51 86.4871 109.517 87.7433C108.931 87.7433 108.344 87.7433 107.758 87.7433C107.758 84.5234 107.758 81.3031 107.758 78.0831C108.344 78.0831 108.931 78.0831 109.517 78.0831C109.51 78.3505 109.517 78.6179 109.536 78.8848C109.941 78.3084 110.483 78.001 111.161 77.9629ZM110.855 79.4861C110.938 79.4817 110.95 79.5085 110.894 79.5662C111.565 79.6488 111.979 80.0364 112.136 80.7287C112.326 81.5275 112.237 82.2891 111.869 83.0134C111.451 83.5265 110.986 83.6399 110.473 83.3541C110.018 83.1573 109.744 82.8034 109.651 82.2919C109.547 81.7488 109.509 81.2013 109.536 80.6485C109.714 79.9254 110.154 79.5378 110.855 79.4861Z" fill="white"/>
<path opacity="0.971" fill-rule="evenodd" clip-rule="evenodd" d="M140.681 77.9629C142.581 77.9701 143.645 78.959 143.874 80.9291C143.894 81.2762 143.9 81.6237 143.894 81.9713C142.339 82.0354 140.784 82.0623 139.228 82.0514C139.367 83.0183 139.902 83.5325 140.834 83.5947C141.465 83.6415 142.006 83.4347 142.46 82.9734C142.787 83.2287 143.112 83.4892 143.435 83.755C143.474 83.7971 143.48 83.844 143.454 83.8953C142.541 84.8288 141.451 85.1828 140.184 84.9575C138.818 84.7006 137.97 83.8656 137.642 82.4523C137.41 81.1932 137.664 80.0573 138.406 79.0452C139.032 78.3729 139.791 78.0122 140.681 77.9629ZM140.452 79.3658C141.002 79.2708 141.468 79.4312 141.848 79.8468C142.063 80.2152 142.184 80.616 142.211 81.0493C141.217 81.0493 140.223 81.0493 139.228 81.0493C139.325 80.2288 139.733 79.6677 140.452 79.3658Z" fill="white"/>
<path opacity="0.976" fill-rule="evenodd" clip-rule="evenodd" d="M165.345 77.9629C166.317 78.039 166.999 78.5465 167.391 79.4861C167.517 79.8765 167.593 80.2773 167.621 80.6886C167.64 82.0783 167.646 83.4676 167.64 84.8573C167.053 84.8573 166.467 84.8573 165.881 84.8573C165.896 83.4403 165.877 82.0238 165.823 80.6084C165.714 79.7121 165.249 79.4115 164.428 79.7065C163.859 79.9286 163.508 80.3495 163.376 80.9692C163.357 82.2919 163.35 83.6147 163.357 84.9375C162.758 84.9375 162.159 84.9375 161.56 84.9375C161.56 82.6659 161.56 80.3948 161.56 78.1232C162.159 78.1232 162.758 78.1232 163.357 78.1232C163.35 78.4844 163.357 78.8451 163.376 79.2055C163.647 78.7076 164.036 78.3537 164.542 78.1433C164.822 78.0904 165.09 78.0302 165.345 77.9629Z" fill="white"/>
<path opacity="0.979" fill-rule="evenodd" clip-rule="evenodd" d="M191.156 77.9629C192.677 77.9881 193.78 78.7097 194.464 80.1274C195.081 82.1969 194.475 83.7265 192.648 84.717C191.045 85.3243 189.687 84.9567 188.575 83.6147C187.87 82.5661 187.717 81.4305 188.116 80.2076C188.712 78.8427 189.725 78.0948 191.156 77.9629ZM191.042 79.6464C192.066 79.632 192.671 80.1531 192.858 81.2097C192.928 81.938 192.705 82.5461 192.189 83.0335C191.497 83.466 190.834 83.4259 190.2 82.9132C189.544 82.1292 189.461 81.2806 189.952 80.3679C190.234 79.9899 190.597 79.7494 191.042 79.6464Z" fill="white"/>
<path opacity="0.978" fill-rule="evenodd" clip-rule="evenodd" d="M216.929 77.9629C218.091 78.0783 218.811 78.7329 219.089 79.927C219.152 80.2172 219.191 80.5114 219.204 80.8088C219.223 82.1584 219.23 83.5077 219.223 84.8573C218.624 84.8573 218.025 84.8573 217.426 84.8573C217.432 83.4544 217.426 82.0514 217.407 80.6485C217.312 79.7342 216.847 79.4203 216.011 79.7065C215.38 79.9542 215.017 80.4284 214.921 81.1295C214.902 82.3985 214.896 83.668 214.902 84.9375C214.316 84.9375 213.729 84.9375 213.143 84.9375C213.143 82.6659 213.143 80.3948 213.143 78.1232C213.729 78.1232 214.316 78.1232 214.902 78.1232C214.896 78.5108 214.902 78.8984 214.921 79.2857C215.366 78.4615 216.035 78.0206 216.929 77.9629Z" fill="white"/>
<path opacity="0.97" fill-rule="evenodd" clip-rule="evenodd" d="M27.8012 78.0429C28.5843 77.9523 29.3108 78.1195 29.9807 78.544C30.4608 78.9621 30.7539 79.4964 30.8602 80.1473C30.3633 80.1674 29.8662 80.1742 29.3689 80.1674C29.2088 79.6114 28.8455 79.3577 28.2791 79.4058C27.8732 79.3737 27.5417 79.5208 27.2849 79.8467C27.1194 80.1553 27.1896 80.389 27.4952 80.5482C27.7213 80.6275 27.9507 80.6941 28.1835 80.7486C28.9672 80.8007 29.7064 81.0143 30.4014 81.3899C30.9638 81.9836 31.1359 82.685 30.9176 83.4943C30.6007 84.1741 30.0972 84.6215 29.4072 84.8371C28.5819 85.1009 27.7661 85.0744 26.9599 84.7569C26.0989 84.3497 25.6273 83.6482 25.5451 82.6526C26.0301 82.6393 26.5145 82.6526 26.9981 82.6926C27.1083 83.2322 27.4269 83.5328 27.9541 83.5945C28.3984 83.6414 28.819 83.5612 29.216 83.354C29.5669 83.0321 29.5669 82.7115 29.216 82.392C29.0563 82.3094 28.8906 82.2425 28.7189 82.1916C28.0421 82.1299 27.3793 81.996 26.7305 81.7907C25.9419 81.4276 25.6041 80.7927 25.7172 79.8868C25.9278 79.0647 26.4185 78.5099 27.1893 78.2233C27.396 78.1552 27.6 78.095 27.8012 78.0429Z" fill="white"/>
<path opacity="0.976" fill-rule="evenodd" clip-rule="evenodd" d="M99.728 78.043C100.746 77.8987 101.651 78.1592 102.443 78.8246C102.955 79.3301 103.248 79.9514 103.322 80.6885C102.736 80.6953 102.15 80.6885 101.563 80.6685C101.328 79.8564 100.806 79.5225 99.9957 79.6664C99.4863 79.7862 99.1613 80.1137 99.0206 80.6484C98.873 81.329 98.9112 81.9968 99.1353 82.6526C99.473 83.2655 99.9762 83.4992 100.646 83.3541C101.146 83.2174 101.452 82.8835 101.563 82.352C102.15 82.3319 102.736 82.3251 103.322 82.3319C103.296 82.8502 103.136 83.318 102.844 83.7349C102.61 83.9405 102.387 84.1609 102.175 84.3962C101.139 85.0765 100.043 85.1967 98.8868 84.757C98.2199 84.472 97.7419 83.9846 97.4528 83.2939C97.1477 82.564 97.0456 81.8024 97.1469 81.0092C97.296 79.3365 98.1564 78.3476 99.728 78.043Z" fill="white"/>
<path opacity="0.976" fill-rule="evenodd" clip-rule="evenodd" d="M117.356 78.043C118.012 77.936 118.611 78.0763 119.153 78.4639C119.316 78.6074 119.45 78.7746 119.555 78.965C119.574 78.6848 119.58 78.4042 119.574 78.1232C120.173 78.1232 120.772 78.1232 121.371 78.1232C121.371 80.3947 121.371 82.6659 121.371 84.9374C120.772 84.9374 120.173 84.9374 119.574 84.9374C119.58 84.6701 119.574 84.4027 119.555 84.1358C119.078 84.7987 118.485 85.0593 117.777 84.9174C117.296 84.9142 116.856 84.7739 116.457 84.4965C116.446 84.529 116.426 84.5554 116.4 84.5767C115.609 83.9923 115.156 83.1906 115.043 82.1717C114.916 81.018 115.158 79.9626 115.769 79.0051C116.184 78.4703 116.713 78.1497 117.356 78.043ZM118.083 79.486C118.357 79.5317 118.624 79.6187 118.886 79.7466C119.207 80.0043 119.405 80.345 119.478 80.7687C119.566 81.3135 119.591 81.861 119.555 82.4122C119.354 83.104 118.907 83.4648 118.216 83.4944C117.792 83.4391 117.448 83.2387 117.184 82.8932C116.702 81.9472 116.702 80.9984 117.184 80.0472C117.413 79.7302 117.713 79.543 118.083 79.486Z" fill="white"/>
<path opacity="0.974" fill-rule="evenodd" clip-rule="evenodd" d="M146.876 78.0429C147.732 77.9431 148.51 78.1503 149.209 78.6642C149.598 79.0859 149.84 79.5869 149.935 80.1673C149.451 80.1741 148.966 80.1673 148.482 80.1473C148.289 79.6182 147.919 79.3709 147.373 79.4057C146.925 79.3769 146.575 79.5504 146.322 79.9268C146.237 80.2627 146.358 80.4832 146.685 80.5882C147.37 80.7481 148.058 80.8952 148.75 81.0291C148.996 81.1386 149.239 81.2588 149.476 81.3899C149.797 81.6949 149.995 82.0757 150.069 82.5323C150.135 83.5588 149.721 84.2871 148.826 84.7168C148.408 84.89 147.975 84.9633 147.526 84.9373C147.526 84.4831 147.526 84.0286 147.526 83.5744C147.903 83.6009 148.215 83.4674 148.463 83.1736C148.624 82.8601 148.567 82.5996 148.291 82.392C148.181 82.3274 148.066 82.2741 147.947 82.2316C147.452 82.135 146.955 82.0549 146.456 81.9911C145.952 81.9041 145.512 81.6837 145.136 81.3297C144.515 80.1593 144.738 79.2037 145.805 78.4638C146.147 78.2645 146.503 78.1243 146.876 78.0429Z" fill="white"/>
<path opacity="0.984" fill-rule="evenodd" clip-rule="evenodd" d="M156.168 78.0429C156.858 77.9267 157.483 78.0802 158.042 78.5039C158.191 78.6342 158.313 78.7877 158.405 78.9649C158.424 78.6847 158.43 78.4041 158.424 78.1231C159.01 78.1231 159.597 78.1231 160.183 78.1231C160.183 80.3946 160.183 82.6658 160.183 84.9373C159.597 84.9373 159.01 84.9373 158.424 84.9373C158.43 84.6431 158.424 84.3493 158.405 84.0555C157.955 84.7149 157.337 85.0355 156.55 85.0175C156.55 84.9774 156.55 84.9373 156.55 84.8973C156.096 84.8964 155.682 84.763 155.307 84.4964C155.296 84.5289 155.277 84.5553 155.25 84.5766C154.477 84.0122 154.025 83.237 153.893 82.2517C153.727 80.967 154.02 79.8182 154.772 78.8045C155.168 78.4065 155.634 78.1528 156.168 78.0429ZM156.703 79.526C157.508 79.4394 158.031 79.7934 158.271 80.5883C158.441 81.2196 158.46 81.8541 158.328 82.4922C158.103 83.1083 157.677 83.4426 157.047 83.4943C156.46 83.4306 156.059 83.1099 155.843 82.5323C155.558 81.6392 155.635 80.7839 156.072 79.9669C156.249 79.7601 156.46 79.613 156.703 79.526Z" fill="white"/>
<path opacity="0.974" fill-rule="evenodd" clip-rule="evenodd" d="M205.304 78.0429C206.087 77.9523 206.814 78.1195 207.484 78.544C207.958 78.9564 208.251 79.4843 208.363 80.1273C207.867 80.1674 207.37 80.1806 206.872 80.1674C206.797 79.8146 206.593 79.5809 206.26 79.4659C205.838 79.3593 205.43 79.3994 205.037 79.5862C204.555 79.9762 204.581 80.3101 205.113 80.5882C205.786 80.745 206.462 80.8921 207.14 81.0292C208.047 81.2729 208.506 81.8874 208.516 82.873C208.494 83.5075 208.239 84.015 207.752 84.3962C207.219 84.8066 206.619 84.987 205.954 84.9373C205.954 84.4832 205.954 84.0286 205.954 83.5745C206.326 83.5901 206.638 83.4566 206.891 83.1736C207.04 82.8658 206.983 82.6053 206.719 82.392C206.607 82.3307 206.493 82.2774 206.375 82.2317C205.827 82.1347 205.279 82.0413 204.731 81.9511C204.416 81.8397 204.11 81.7062 203.813 81.5503C203.474 81.2869 203.276 80.933 203.22 80.488C203.15 79.6266 203.462 78.9652 204.157 78.5039C204.517 78.2738 204.899 78.1203 205.304 78.0429Z" fill="white"/>
<path opacity="0.977" fill-rule="evenodd" clip-rule="evenodd" d="M222.78 78.0431C223.414 77.9421 224.001 78.0691 224.539 78.4239C224.687 78.5654 224.82 78.7193 224.94 78.8848C224.959 78.6315 224.966 78.3774 224.959 78.1232C225.56 78.1361 226.159 78.1224 226.756 78.0832C226.801 80.3812 226.807 82.6792 226.776 84.9776C226.651 86.0614 226.096 86.7761 225.112 87.122C224.837 87.2142 224.557 87.2808 224.271 87.3225C223.29 87.3425 222.308 87.3493 221.327 87.3425C221.327 86.8483 221.327 86.3536 221.327 85.8594C222.27 85.8662 223.213 85.8594 224.156 85.8394C224.534 85.7989 224.782 85.592 224.902 85.2181C224.961 84.8597 224.974 84.499 224.94 84.1358C224.495 84.7463 223.903 85.0401 223.162 85.0177C223.162 84.9776 223.162 84.9375 223.162 84.8974C222.704 84.9094 222.289 84.7755 221.919 84.4966C221.893 84.531 221.861 84.5575 221.824 84.5767C220.751 83.7249 220.299 82.589 220.466 81.1696C220.517 80.3547 220.772 79.62 221.231 78.965C221.643 78.4587 222.159 78.1513 222.78 78.0431ZM223.277 79.5262C224.247 79.4544 224.801 79.9222 224.94 80.9291C224.966 81.4233 224.966 81.918 224.94 82.4122C224.545 83.4315 223.876 83.7053 222.933 83.2339C222.567 82.9008 222.356 82.4799 222.302 81.9713C222.201 81.2722 222.315 80.6177 222.646 80.0072C222.81 79.7735 223.021 79.6132 223.277 79.5262Z" fill="white"/>
<path opacity="0.978" fill-rule="evenodd" clip-rule="evenodd" d="M41.8346 78.1232C42.4786 78.0699 43.1286 78.0699 43.7848 78.1232C44.418 79.6777 45.0616 81.2277 45.7158 82.773C46.2978 81.2185 46.8905 79.6685 47.4939 78.1232C48.1184 78.0699 48.7432 78.0699 49.3676 78.1232C48.1325 81.34 46.9089 84.5603 45.6967 87.7834C45.0723 87.7834 44.4475 87.7834 43.823 87.7834C44.1611 86.8539 44.5052 85.9251 44.8555 84.9976C43.8624 82.6952 42.8552 80.404 41.8346 78.1232Z" fill="white"/>
<path opacity="0.973" fill-rule="evenodd" clip-rule="evenodd" d="M83.3234 78.083C83.9226 78.083 84.5215 78.083 85.1207 78.083C85.1207 80.3546 85.1207 82.6257 85.1207 84.8972C84.5215 84.8972 83.9226 84.8972 83.3234 84.8972C83.3299 84.5361 83.3234 84.1753 83.3043 83.815C82.8615 84.6131 82.1985 85.0271 81.3159 85.0576C80.0013 84.8688 79.2621 84.0803 79.0981 82.6926C79.043 81.1839 79.0239 79.6739 79.0407 78.1632C79.6399 78.1632 80.2387 78.1632 80.8379 78.1632C80.8314 79.5793 80.8379 80.9959 80.8571 82.4121C80.9787 83.3212 81.4566 83.6218 82.291 83.3139C82.8279 83.0915 83.1655 82.6842 83.3043 82.0914C83.3234 80.7554 83.3299 79.419 83.3234 78.083Z" fill="white"/>
<path opacity="0.987" fill-rule="evenodd" clip-rule="evenodd" d="M200.142 78.083C200.728 78.083 201.315 78.083 201.901 78.083C201.901 80.3546 201.901 82.6257 201.901 84.8972C201.315 84.8972 200.728 84.8972 200.142 84.8972C200.149 84.5229 200.142 84.1489 200.123 83.7749C199.52 84.8363 198.647 85.2171 197.504 84.9173C196.832 84.7068 196.366 84.2595 196.108 83.5745C195.983 83.239 195.907 82.8915 195.879 82.5323C195.86 81.0761 195.853 79.6194 195.86 78.1632C196.446 78.1632 197.032 78.1632 197.619 78.1632C197.612 79.526 197.619 80.8889 197.638 82.2517C197.664 82.6004 197.765 82.9211 197.944 83.2137C198.241 83.4338 198.566 83.4803 198.919 83.354C199.582 83.1664 199.984 82.7187 200.123 82.0112C200.142 80.7021 200.149 79.3925 200.142 78.083Z" fill="white"/>
<path opacity="0.972" fill-rule="evenodd" clip-rule="evenodd" d="M11.6647 78.123C12.2638 78.123 12.8628 78.123 13.4619 78.123C13.4619 80.3946 13.4619 82.6657 13.4619 84.9373C12.8628 84.9373 12.2638 84.9373 11.6647 84.9373C11.6647 82.6657 11.6647 80.3946 11.6647 78.123Z" fill="white"/>
<path opacity="0.993" fill-rule="evenodd" clip-rule="evenodd" d="M22.6007 78.123C23.1871 78.123 23.7734 78.123 24.3597 78.123C24.3597 80.3946 24.3597 82.6657 24.3597 84.9373C23.7734 84.9373 23.1871 84.9373 22.6007 84.9373C22.6007 82.6657 22.6007 80.3946 22.6007 78.123Z" fill="white"/>
<path opacity="0.988" fill-rule="evenodd" clip-rule="evenodd" d="M94.2213 78.123C94.8075 78.123 95.3941 78.123 95.9803 78.123C95.9803 80.3946 95.9803 82.6657 95.9803 84.9373C95.3941 84.9373 94.8075 84.9373 94.2213 84.9373C94.2213 82.6657 94.2213 80.3946 94.2213 78.123Z" fill="white"/>
<path opacity="0.988" fill-rule="evenodd" clip-rule="evenodd" d="M104.469 78.123C105.056 78.123 105.642 78.123 106.228 78.123C106.228 80.3946 106.228 82.6657 106.228 84.9373C105.642 84.9373 105.056 84.9373 104.469 84.9373C104.469 82.6657 104.469 80.3946 104.469 78.123Z" fill="white"/>
<path opacity="0.988" fill-rule="evenodd" clip-rule="evenodd" d="M126.342 78.123C126.928 78.123 127.515 78.123 128.101 78.123C128.101 80.3946 128.101 82.6657 128.101 84.9373C127.515 84.9373 126.928 84.9373 126.342 84.9373C126.342 82.6657 126.342 80.3946 126.342 78.123Z" fill="white"/>
<path opacity="0.988" fill-rule="evenodd" clip-rule="evenodd" d="M134.64 78.123C135.226 78.123 135.813 78.123 136.399 78.123C136.399 80.3946 136.399 82.6657 136.399 84.9373C135.813 84.9373 135.226 84.9373 134.64 84.9373C134.64 82.6657 134.64 80.3946 134.64 78.123Z" fill="white"/>
<path opacity="0.993" fill-rule="evenodd" clip-rule="evenodd" d="M209.817 78.123C210.403 78.123 210.989 78.123 211.576 78.123C211.576 80.3946 211.576 82.6657 211.576 84.9373C210.989 84.9373 210.403 84.9373 209.817 84.9373C209.817 82.6657 209.817 80.3946 209.817 78.123Z" fill="white"/>
<path opacity="0.961" fill-rule="evenodd" clip-rule="evenodd" d="M144.62 82.6527C145.104 82.6459 145.589 82.6527 146.073 82.6727C146.195 83.2015 146.513 83.5085 147.029 83.5947C147.181 83.6147 147.334 83.6215 147.488 83.6147C147.488 84.0825 147.488 84.5499 147.488 85.0176C146.616 85.0581 145.858 84.7775 145.212 84.1759C144.869 83.7326 144.672 83.2251 144.62 82.6527Z" fill="white"/>
<path opacity="0.962" fill-rule="evenodd" clip-rule="evenodd" d="M203.048 82.6527C203.533 82.6459 204.017 82.6527 204.502 82.6727C204.614 83.2071 204.932 83.5145 205.458 83.5947C205.61 83.6147 205.763 83.6215 205.916 83.6147C205.916 84.0825 205.916 84.5499 205.916 85.0176C205.119 85.0529 204.405 84.8188 203.775 84.3162C203.342 83.856 203.1 83.3017 203.048 82.6527Z" fill="white"/>
<path fill-rule="evenodd" clip-rule="evenodd" d="M284.278 80.2402C283.838 80.2402 283.398 80.3789 283.003 80.61C281.903 81.442 281.508 83.0135 282.211 84.2616C282.475 84.8624 283.047 85.2322 283.882 85.4633C284.102 85.4633 284.366 85.5096 284.673 85.5096C287.971 85.5096 290.785 83.3833 293.204 81.3958L293.643 81.026L293.951 81.5344C295.05 83.4758 296.941 84.8624 298.964 85.2784C299.096 85.2784 299.228 85.2784 299.403 85.2784C300.854 85.2784 302.437 84.5389 302.745 82.9673C302.921 81.8118 302.261 80.5638 301.206 80.0091C300.547 79.7318 299.755 79.778 298.656 80.2402C298.392 80.3327 298.304 80.7024 298.172 81.2109C298.04 81.7655 297.864 82.5513 297.073 82.5513C296.501 82.5513 295.578 82.0429 295.226 81.3495C295.05 80.9798 295.05 80.5638 295.27 80.2402C296.941 77.6056 299.096 75.7567 301.206 73.954C302.173 73.122 303.185 72.29 304.108 71.3656L304.46 71.042L304.812 71.3656C305.735 72.2438 306.702 73.0758 307.67 73.9078C309.912 75.7567 312.199 77.6518 313.65 80.5176C313.738 80.6562 313.826 80.8873 313.694 81.2109C313.474 81.7655 312.594 82.5513 311.891 82.5975C311.495 82.69 311.231 82.5513 311.099 82.4127C310.836 82.1353 310.88 81.8118 310.88 81.4882C310.88 81.2571 310.88 81.026 310.836 80.9336C310.528 80.2402 309.868 80.1016 309.165 79.9167C307.89 79.5931 306.527 80.61 306.219 82.0429C306.087 82.69 306.175 83.3371 306.527 83.8918C307.23 84.8625 308.197 85.3709 309.297 85.3709C311.495 85.3709 313.87 83.4296 315.013 81.5807L315.32 81.0722L315.76 81.442C317.959 83.2909 320.817 85.4171 323.719 85.4171C324.51 85.4171 325.258 85.2784 325.961 84.9549C326.489 84.7238 326.885 84.2153 327.06 83.5682C327.236 82.8749 327.148 82.1353 326.753 81.5807C326.269 80.8411 325.478 80.3789 324.598 80.3789C323.719 80.3789 322.883 80.8411 322.444 81.5344L322.224 81.9042L321.828 81.7655C320.333 81.1647 318.486 80.2864 317.563 78.5762C317.211 78.0216 317.387 77.1433 317.651 76.5424C317.959 75.9878 318.266 75.8491 318.53 75.8491C318.618 75.8491 318.75 75.8953 318.838 75.9416C319.542 76.4038 320.289 76.6811 320.993 76.6811C322.268 76.6811 323.191 75.8953 323.499 74.6473C323.631 74.0002 323.499 73.3069 323.103 72.7522C322.707 72.1513 322.136 71.7353 321.476 71.5505C321.388 71.5505 321.212 71.5042 321.081 71.5042C319.937 71.5042 318.794 72.1051 318.047 73.0296C317.563 73.6304 317.343 74.37 317.123 75.1558C316.903 75.8491 316.684 76.5424 316.288 77.1896L315.936 77.698L306.658 68.5922L307.054 68.1762C317.035 58.0998 330.358 54.5407 341.307 53.4776C339.9 53.3389 338.493 53.2927 337.086 53.2927C324.994 53.2927 313.562 57.6838 304.944 65.5878L304.636 65.8651L304.284 65.5878C299.755 62.0749 293.687 57.7762 286.74 55.6038C280.233 53.6162 273.725 52.8305 267.481 53.3851C278.43 54.402 291.797 57.9611 301.778 68.0838L302.174 68.4998L292.984 77.4669L292.632 76.9584C292.236 76.3113 292.017 75.618 291.797 74.9247C291.577 74.1389 291.357 73.3993 290.873 72.7984C290.214 72.1051 289.51 71.6891 288.543 71.2731C287.048 70.9495 285.729 71.8278 285.421 73.3993C285.245 74.5549 285.905 75.8029 286.96 76.3575C287.092 76.4038 287.312 76.45 287.576 76.45C288.279 76.45 288.939 76.1726 289.598 75.8491L289.906 75.7104C290.038 75.6642 290.126 75.6642 290.214 75.6642C290.61 75.6642 291.005 75.9415 291.269 76.45C291.533 77.0046 291.665 77.8366 291.313 78.3913C290.434 80.0553 288.587 80.9335 287.092 81.5344L286.74 81.6731L286.52 81.3495C285.949 80.7024 285.113 80.2402 284.278 80.2402ZM284.63 86.5726C284.322 86.5726 284.014 86.5726 283.662 86.5264C282.475 86.2029 281.684 85.6482 281.244 84.77C280.321 83.0597 280.804 80.8873 282.387 79.6855C283.97 78.7149 285.905 79.1771 287.048 80.5175C288.323 80.0091 289.73 79.2233 290.434 77.9753C290.478 77.8829 290.522 77.698 290.434 77.3745C290.346 77.0971 290.258 76.9585 290.17 76.866L289.95 76.9585C289.246 77.282 288.411 77.6055 287.532 77.6055C287.18 77.6055 286.872 77.5593 286.52 77.4207C285.025 76.6349 284.146 74.9247 284.366 73.2607C284.762 71.4118 286.169 70.21 287.883 70.21C288.191 70.21 288.455 70.2562 288.763 70.3024L288.851 70.3487C289.95 70.8109 290.785 71.2731 291.621 72.1513C292.28 72.9371 292.544 73.8153 292.764 74.6936C292.896 75.1095 293.028 75.4793 293.16 75.8491L300.635 68.546C289.246 57.3139 273.461 54.587 262.161 54.2171L257.5 54.0784L262.073 53.154C270.032 51.5362 278.518 52.0446 287.004 54.6331C293.995 56.7593 300.019 61.0117 304.548 64.5246C313.298 56.5744 324.818 52.2295 337.042 52.2295C340.295 52.2295 343.505 52.5531 346.671 53.154L351.376 54.0784L346.627 54.2171C335.327 54.5406 319.542 57.314 308.153 68.546L315.628 75.8491C315.76 75.4793 315.892 75.0633 316.024 74.6935C316.288 73.8615 316.552 72.9833 317.167 72.1975C318.222 70.8571 320.025 70.0713 321.608 70.3486C322.576 70.5797 323.367 71.1806 323.895 72.0126C324.466 72.8908 324.642 73.8615 324.422 74.7859C323.983 76.5424 322.663 77.6517 320.949 77.6517C320.157 77.6517 319.322 77.4206 318.53 76.9584C318.398 77.2357 318.266 77.7442 318.398 77.9291C319.102 79.2233 320.509 80.009 321.784 80.5175C322.444 79.6855 323.455 79.2233 324.554 79.2233C325.785 79.2233 326.928 79.8242 327.588 80.8873C328.16 81.7193 328.335 82.7824 328.028 83.7993C327.764 84.7699 327.148 85.5095 326.357 85.8793C325.521 86.2491 324.642 86.4339 323.719 86.4339C320.685 86.4339 317.783 84.4464 315.54 82.5975C314.133 84.5388 311.671 86.3877 309.297 86.3877C307.89 86.3877 306.614 85.6944 305.691 84.4464C305.163 83.6144 304.988 82.5975 305.207 81.673C305.603 79.9628 307.098 78.6686 308.681 78.6686C308.945 78.6686 309.165 78.7148 309.428 78.7611C310.264 78.9922 311.231 79.2233 311.759 80.2864C311.979 80.61 311.979 81.0722 311.979 81.442C312.199 81.3957 312.594 81.0259 312.77 80.8411C311.451 78.2988 309.341 76.5424 307.142 74.7397C306.263 74.0464 305.383 73.3068 304.548 72.5211C303.712 73.3531 302.789 74.0926 301.954 74.8322C299.799 76.6811 297.82 78.3913 296.238 80.8873C296.281 81.0721 296.853 81.4881 297.161 81.4881C297.205 81.3957 297.293 81.1184 297.337 80.9335C297.469 80.3326 297.689 79.5468 298.436 79.2233C299.799 78.6686 300.81 78.6224 301.822 79.0384C303.273 79.8241 304.152 81.5344 303.932 83.1522C303.449 85.6481 300.986 86.5726 298.964 86.3415C296.809 85.9255 294.787 84.5388 293.511 82.5975C290.917 84.5851 288.015 86.5726 284.63 86.5726Z" fill="white"/>
</svg>
