<svg width="260" height="684" viewBox="0 0 260 684" fill="none" xmlns="http://www.w3.org/2000/svg">
<g opacity="0.3">
<mask id="mask0_2_2965" style="mask-type:alpha" maskUnits="userSpaceOnUse" x="0" y="0" width="260" height="684">
<path d="M0 50C0 22.3858 22.3858 0 50 0H260V684H0V50Z" fill="#D2E3AF"/>
</mask>
<g mask="url(#mask0_2_2965)">
<path fill-rule="evenodd" clip-rule="evenodd" d="M-0.708862 0C1.8269 0.190008 3.84082 1.37134 5.32843 3.54404C10.7281 13.2651 14.9155 23.5598 17.886 34.4278C19.1754 39.4988 20.4651 44.5618 21.7498 49.6166C32.7041 40.6345 45.1796 35.8247 59.1816 35.1873C65.6488 34.8521 72.0914 35.1898 78.5006 36.1998C87.1315 37.7729 95.666 39.7981 104.099 42.2753C96.9749 45.7217 89.8896 49.2657 82.8478 52.9075C77.4333 56.7239 72.4442 61.1119 67.8751 66.0711C101.723 64.5193 133.435 72.4513 163.023 89.8668C185.892 103.36 206.26 120.321 224.121 140.749C239.475 158.478 253.163 177.38 265.174 197.454C233.433 170.055 197.615 150.394 157.71 138.471C144.273 134.469 130.586 132.191 116.657 131.636C113.102 131.927 109.561 132.349 106.031 132.902C128.973 143.464 149.577 157.64 167.853 175.43C199.358 206.284 222.136 243.159 236.195 286.055C243.295 308.934 247 332.392 247.304 356.429C220.189 302.68 183.565 257.198 137.425 219.984C125.881 210.936 113.242 203.932 99.5107 198.973C105.756 208.665 112.034 218.453 118.347 228.337C152.422 283.95 167.877 344.874 164.714 411.109C164.269 422.607 163.545 434.083 162.54 445.537C155.884 416.246 146.302 388.062 133.802 360.986C117.855 325.261 99.0179 291.508 77.2931 259.728C73.6276 254.535 69.6041 249.641 65.2189 245.045C80.8288 323.79 80.9932 402.603 65.7015 481.483C62.5093 441.679 57.1965 402.188 49.7631 363.011C44.8414 336.125 37.5966 309.966 28.0286 284.536C25.7877 279.163 23.2908 273.931 20.5426 268.841C17.8814 292.838 14.9836 316.802 11.8488 340.734C14.5872 340.734 17.3209 340.734 20.0596 340.734C18.3593 373.969 16.7463 407.215 15.2295 440.474C17.4849 440.474 19.736 440.474 21.9916 440.474C20.3685 475.706 18.4365 510.894 16.1956 546.035C19.4169 546.202 22.6337 546.375 25.8554 546.542C22.4119 582.519 19.4365 618.547 16.92 654.635C24.4352 659.587 31.5208 665.156 38.1712 671.343C39.6205 673.201 41.0693 675.054 42.5183 676.912C42.7599 679.266 42.842 681.63 42.7599 684C13.9401 684 -14.8748 684 -43.6949 684C-43.7767 681.797 -43.6949 679.605 -43.4531 677.418C-35.7208 668.29 -26.8676 660.695 -16.8891 654.635C-19.1975 620.951 -21.854 587.283 -24.8581 553.63C-24.7759 552.197 -24.6988 550.759 -24.6166 549.326C-22.1871 548.375 -19.6949 547.615 -17.1303 547.048C-16.8264 546 -16.662 544.901 -16.6472 543.757C-19.2749 510.342 -21.854 476.927 -24.3751 443.511C-21.96 443.511 -19.5453 443.511 -17.1303 443.511C-18.5504 409.757 -19.9995 376.005 -21.4774 342.253C-19.4728 342.187 -17.5411 341.765 -15.6815 340.987C-19.0234 317.305 -22.3226 293.594 -25.5826 269.853C-48.0369 336.583 -61.0776 405.27 -64.7045 475.914C-73.9924 451.873 -79.4646 426.897 -81.126 400.983C-85.0383 350.747 -80.8508 301.299 -68.5683 252.639C-103.478 291.531 -129.719 336.254 -147.295 386.807C-153.356 405.47 -158.505 424.371 -162.75 443.511C-164.586 432.721 -166.354 421.92 -168.063 411.109C-170.614 382.967 -168.198 355.29 -160.818 328.077C-148.517 284.149 -130.081 243.393 -105.517 205.808C-119.011 211.953 -131.728 219.547 -143.673 228.591C-165.557 245.624 -185.118 265.285 -202.355 287.574C-219.926 311.072 -236.184 335.543 -251.137 360.986C-245.592 320.264 -233.841 281.618 -215.879 245.045C-195.202 204.3 -165.822 172.319 -127.734 149.103C-120.446 145.114 -113.042 141.401 -105.517 137.964C-121.117 135.01 -136.732 135.01 -152.366 137.964C-190.416 144.579 -223.742 161.202 -252.344 187.834C-254.213 186.299 -255.822 184.527 -257.174 182.518C-243.047 161.115 -227.268 141.032 -209.841 122.269C-179.872 93.6589 -144.614 76.6136 -104.068 71.134C-92.3552 69.5624 -80.6043 68.4653 -68.8098 67.8431C-77.238 56.5016 -88.1823 49.2449 -101.653 46.0725C-86.0959 35.3189 -69.1915 32.1966 -50.9394 36.7061C-41.2506 39.0437 -32.4749 43.3472 -24.6166 49.6166C-22.2256 36.8611 -18.1979 24.7101 -12.542 13.1636C-10.2769 8.93184 -7.461 5.13466 -4.0896 1.77202C-2.91595 1.15809 -1.79089 0.567399 -0.708862 0Z" fill="#AAAAAA"/>
</g>
</g>
</svg>
