<svg width="30" height="30" viewBox="0 0 30 30" fill="none" xmlns="http://www.w3.org/2000/svg">
<path d="M30 14.9501C30.0027 16.2426 29.2889 17.4211 28.1668 17.9768L4.60848 29.5819C4.17731 29.8264 3.69966 29.9691 3.20946 30C2.11954 29.9976 1.10494 29.4214 0.51392 28.4691C-0.0771006 27.5169 -0.164111 26.3181 0.282759 25.2844L3.94917 16.6223H12.8579C13.746 16.6223 14.466 15.8737 14.466 14.9501C14.466 14.0266 13.746 13.2779 12.8579 13.2779H3.94917L0.28276 4.69952C-0.261296 3.42291 0.0146388 1.92916 0.974837 0.953023C1.93503 -0.0231128 3.37738 -0.276162 4.5924 0.318346L28.1507 11.9235C29.2791 12.4744 29.9998 13.6538 30 14.9501Z" fill="#C6DAA0"/>
</svg>
