<svg width="27" height="19" viewBox="0 0 27 19" fill="none" xmlns="http://www.w3.org/2000/svg">
<path d="M13.6285 6.28391L21.2294 1.57761C21.2762 1.54913 21.3455 1.52065 21.3982 1.55074C21.4466 1.57815 21.503 1.66145 21.503 1.8071V17.4158C21.503 17.5625 21.4449 17.6463 21.395 17.6732C21.338 17.7033 21.2681 17.6721 21.2208 17.6404L14.0982 12.8621C13.9752 12.7788 13.808 12.8121 13.7258 12.9357C13.643 13.0588 13.6758 13.2259 13.7994 13.3082L20.9231 18.087C21.0591 18.1773 21.2036 18.223 21.345 18.223C21.4503 18.223 21.5535 18.1977 21.6497 18.1461C21.8942 18.015 22.0404 17.742 22.0404 17.4163V1.8071C22.0404 1.48625 21.8985 1.21538 21.6615 1.0821C21.446 0.961177 21.1864 0.974076 20.9478 1.11918L13.3453 5.82656C13.219 5.90502 13.1803 6.07055 13.2582 6.19685C13.3367 6.32261 13.5022 6.36184 13.6285 6.28391Z" fill="white" stroke="white"/>
<path d="M23.9594 11.2469H23.6525C23.5042 11.2469 23.3838 11.3673 23.3838 11.5156C23.3838 11.6639 23.5042 11.7843 23.6525 11.7843H23.9594C25.0445 11.7843 25.8022 10.9046 25.8022 9.61525C25.8022 8.36088 25.0445 7.48486 23.9594 7.48486H23.6525C23.5042 7.48486 23.3838 7.60525 23.3838 7.75358C23.3838 7.90191 23.5042 8.0223 23.6525 8.0223H23.9594C24.923 8.0223 25.2648 8.88058 25.2648 9.64427C25.2648 10.4418 24.8612 11.2469 23.9594 11.2469Z" fill="white" stroke="white"/>
<path d="M6.37189 15.9729C9.32203 14.9559 11.4247 12.5921 11.7546 9.58243C11.8461 8.27591 11.8383 6.96433 11.7314 5.65899C11.7021 5.23265 11.3535 4.89842 10.9263 4.88703C9.59169 4.84593 8.04067 4.62354 6.84195 3.44273C6.58135 3.18576 6.16268 3.18576 5.90209 3.44273C4.70324 4.62341 3.15222 4.84593 1.81775 4.88703C1.39056 4.89842 1.04201 5.23265 1.01272 5.65899C0.905624 6.96432 0.897742 8.2759 0.989131 9.58243C1.31911 12.5921 3.42175 14.9559 6.37189 15.9729Z" fill="white"/>
</svg>
