<svg width="23" height="20" viewBox="0 0 23 20" fill="none" xmlns="http://www.w3.org/2000/svg">
<path d="M22.2593 19.3419L22.2579 19.3412L18.2408 17.3322L18.2185 17.3211C17.9263 17.1754 17.7797 17.1023 17.6243 17.0505C17.4802 17.0021 17.3336 16.9673 17.1887 16.947C17.0213 16.9236 16.8508 16.9236 16.511 16.9236H4.3682C3.01575 16.9236 2.3369 16.9236 1.8203 16.6608C1.36189 16.4271 0.99652 16.0617 0.7637 15.6042C0.5 15.0867 0.5 14.4079 0.5 13.0554V3.8682C0.5 2.51635 0.5 1.8378 0.7637 1.3203C0.99652 0.86281 1.36189 0.49744 1.8203 0.2637C2.3369 0 3.01575 0 4.3682 0H18.3911C19.743 0 20.4215 0 20.939 0.2637C21.3965 0.49743 21.7619 0.8628 21.9956 1.3203C22.2593 1.8378 22.2593 2.51635 22.2593 3.8682V19.3403V19.3419ZM5.3357 11.484C5.00221 11.484 4.7309 11.7549 4.7309 12.0879C4.7309 12.4214 5.00221 12.6927 5.3357 12.6927H17.4236C17.7571 12.6927 18.0284 12.4214 18.0284 12.0879C18.0284 11.7549 17.7571 11.484 17.4236 11.484H5.3357ZM5.3357 7.857C5.00221 7.857 4.7309 8.12831 4.7309 8.4618C4.7309 8.79529 5.00221 9.0666 5.3357 9.0666H17.4236C17.7571 9.0666 18.0284 8.79529 18.0284 8.4618C18.0284 8.12831 17.7571 7.857 17.4236 7.857H5.3357ZM5.3357 4.2309C5.00221 4.2309 4.7309 4.50221 4.7309 4.8357C4.7309 5.16869 5.00221 5.4396 5.3357 5.4396H17.4236C17.7571 5.4396 18.0284 5.16869 18.0284 4.8357C18.0284 4.50221 17.7571 4.2309 17.4236 4.2309H5.3357Z" fill="#C6DAA0"/>
</svg>
